<svg width="822" height="144" viewBox="0 0 822 144" fill="none" xmlns="http://www.w3.org/2000/svg">
<rect width="822" height="144" rx="72" fill="url(#paint0_linear)"/>
<path d="M324.253 82.8876C324.253 86.4343 322.965 89.2716 320.389 91.3996C317.85 93.4903 314.229 94.5356 309.525 94.5356C305.306 94.5356 301.535 93.7329 298.213 92.1276V84.2316C300.117 85.0529 302.077 85.8183 304.093 86.5276C306.146 87.1996 308.181 87.5356 310.197 87.5356C312.287 87.5356 313.762 87.1436 314.621 86.3596C315.517 85.5383 315.965 84.5116 315.965 83.2796C315.965 82.2716 315.61 81.4129 314.901 80.7036C314.229 79.9943 313.314 79.3409 312.157 78.7436C310.999 78.1089 309.674 77.4369 308.181 76.7276C307.247 76.2796 306.239 75.7569 305.157 75.1596C304.074 74.5249 303.029 73.7596 302.021 72.8636C301.05 71.9303 300.247 70.8103 299.613 69.5036C298.978 68.1969 298.661 66.6289 298.661 64.7996C298.661 61.2156 299.874 58.4343 302.301 56.4556C304.727 54.4396 308.031 53.4316 312.213 53.4316C314.303 53.4316 316.282 53.6743 318.149 54.1596C320.053 54.6449 322.031 55.3356 324.085 56.2316L321.341 62.8396C319.511 62.0929 317.869 61.5143 316.413 61.1036C314.957 60.6929 313.463 60.4876 311.933 60.4876C310.327 60.4876 309.095 60.8609 308.237 61.6076C307.378 62.3543 306.949 63.3249 306.949 64.5196C306.949 65.9383 307.583 67.0583 308.853 67.8796C310.122 68.7009 312.007 69.7089 314.509 70.9036C316.562 71.8743 318.298 72.8823 319.717 73.9276C321.173 74.9729 322.293 76.2049 323.077 77.6236C323.861 79.0423 324.253 80.7969 324.253 82.8876ZM346.472 93.9756H328.272V89.1596L333.144 86.9196V61.0476L328.272 58.8076V53.9916H346.472V58.8076L341.6 61.0476V86.9196L346.472 89.1596V93.9756ZM368.462 71.5196H384.31V92.2396C382.219 92.9489 380.035 93.5089 377.758 93.9196C375.518 94.3303 372.961 94.5356 370.086 94.5356C364.113 94.5356 359.521 92.7809 356.31 89.2716C353.099 85.7623 351.494 80.6476 351.494 73.9276C351.494 69.7463 352.297 66.1249 353.902 63.0636C355.545 60.0023 357.915 57.6316 361.014 55.9516C364.113 54.2716 367.902 53.4316 372.382 53.4316C374.51 53.4316 376.601 53.6556 378.654 54.1036C380.707 54.5516 382.574 55.1489 384.254 55.8956L381.454 62.6716C380.222 62.0369 378.822 61.5143 377.254 61.1036C375.686 60.6929 374.043 60.4876 372.326 60.4876C369.862 60.4876 367.715 61.0476 365.886 62.1676C364.094 63.2876 362.694 64.8743 361.686 66.9276C360.715 68.9436 360.23 71.3329 360.23 74.0956C360.23 76.7089 360.585 79.0236 361.294 81.0396C362.003 83.0556 363.123 84.6423 364.654 85.7996C366.185 86.9196 368.182 87.4796 370.646 87.4796C371.841 87.4796 372.849 87.4236 373.67 87.3116C374.529 87.1996 375.313 87.0689 376.022 86.9196V78.5756H368.462V71.5196ZM429.258 93.9756H418.506L401.09 63.7356H400.866C400.94 65.6396 401.015 67.5436 401.09 69.4476C401.202 71.3516 401.295 73.2556 401.37 75.1596V93.9756H393.81V53.9916H404.506L421.866 83.9516H422.034C421.996 82.0849 421.94 80.2369 421.866 78.4076C421.791 76.5783 421.716 74.7489 421.642 72.9196V53.9916H429.258V93.9756ZM486.447 79.8636C486.447 82.6263 485.831 85.1276 484.599 87.3676C483.404 89.5703 481.575 91.3249 479.111 92.6316C476.684 93.9009 473.604 94.5356 469.871 94.5356C464.57 94.5356 460.538 93.1916 457.775 90.5036C455.012 87.7783 453.631 84.1943 453.631 79.7516V53.9916H462.087V78.4636C462.087 81.7489 462.759 84.0636 464.103 85.4076C465.447 86.7516 467.444 87.4236 470.095 87.4236C472.858 87.4236 474.855 86.6956 476.087 85.2396C477.356 83.7836 477.991 81.5063 477.991 78.4076V53.9916H486.447V79.8636ZM509.007 53.9916C514.159 53.9916 517.911 55.1116 520.263 57.3516C522.653 59.5543 523.847 62.5969 523.847 66.4796C523.847 68.7943 523.362 70.9783 522.391 73.0316C521.421 75.0476 519.797 76.6716 517.519 77.9036C515.279 79.1356 512.218 79.7516 508.335 79.7516H504.695V93.9756H496.239V53.9916H509.007ZM508.559 60.9356H504.695V72.8076H507.495C509.885 72.8076 511.77 72.3409 513.151 71.4076C514.57 70.4369 515.279 68.8876 515.279 66.7596C515.279 62.8769 513.039 60.9356 508.559 60.9356Z" fill="#212121"/>
<defs>
<linearGradient id="paint0_linear" x1="822" y1="72.0001" x2="-1.07654e-07" y2="72.0001" gradientUnits="userSpaceOnUse">
<stop stop-color="#FFEB3B"/>
<stop offset="1" stop-color="#FFC107"/>
</linearGradient>
</defs>
</svg>
