<svg width="744" height="144" viewBox="0 0 744 144" fill="none" xmlns="http://www.w3.org/2000/svg">
<g clip-path="url(#clip0)">
<rect width="744" height="144" rx="72" fill="url(#paint0_linear)"/>
<path d="M244.605 60.4797C241.415 60.4797 238.945 61.6829 237.195 64.0891C235.445 66.4771 234.57 69.8131 234.57 74.0969C234.57 83.011 237.915 87.468 244.605 87.468C247.413 87.468 250.812 86.7662 254.805 85.3625V92.4719C251.523 93.8391 247.859 94.5227 243.812 94.5227C237.997 94.5227 233.549 92.7636 230.469 89.2454C227.388 85.7089 225.848 80.6412 225.848 74.0422C225.848 69.886 226.604 66.2493 228.117 63.1321C229.63 59.9967 231.799 57.5995 234.625 55.9407C237.469 54.2636 240.796 53.425 244.605 53.425C248.488 53.425 252.389 54.3639 256.309 56.2415L253.574 63.1321C252.079 62.4211 250.576 61.8014 249.062 61.2727C247.549 60.7441 246.064 60.4797 244.605 60.4797ZM299.074 73.9329C299.074 80.55 297.434 85.636 294.152 89.1907C290.871 92.7454 286.168 94.5227 280.043 94.5227C273.918 94.5227 269.215 92.7454 265.934 89.1907C262.652 85.636 261.012 80.5318 261.012 73.8782C261.012 67.2245 262.652 62.1477 265.934 58.6477C269.233 55.1295 273.954 53.3704 280.098 53.3704C286.241 53.3704 290.935 55.1386 294.18 58.675C297.443 62.2115 299.074 67.2974 299.074 73.9329ZM269.898 73.9329C269.898 78.399 270.746 81.7623 272.441 84.0227C274.137 86.2831 276.671 87.4133 280.043 87.4133C286.806 87.4133 290.188 82.9198 290.188 73.9329C290.188 64.9277 286.824 60.425 280.098 60.425C276.725 60.425 274.182 61.5644 272.469 63.843C270.755 66.1034 269.898 69.4667 269.898 73.9329ZM342.824 93.9758H332.051L314.66 63.7336H314.414C314.76 69.0748 314.934 72.8847 314.934 75.1633V93.9758H307.359V53.9993H318.051L335.414 83.9407H335.605C335.332 78.7454 335.195 75.0722 335.195 72.9211V53.9993H342.824V93.9758ZM368.336 93.9758H359.859V61.054H349.004V53.9993H379.191V61.054H368.336V93.9758ZM400.301 93.9758H382.117V89.1633L386.984 86.9211V61.054L382.117 58.8118V53.9993H400.301V58.8118L395.434 61.054V86.9211L400.301 89.1633V93.9758ZM442.629 93.9758H431.855L414.465 63.7336H414.219C414.565 69.0748 414.738 72.8847 414.738 75.1633V93.9758H407.164V53.9993H417.855L435.219 83.9407H435.41C435.137 78.7454 435 75.0722 435 72.9211V53.9993H442.629V93.9758ZM485.258 53.9993V79.8665C485.258 82.8196 484.592 85.4081 483.262 87.6321C481.949 89.856 480.044 91.5605 477.547 92.7454C475.049 93.9303 472.096 94.5227 468.688 94.5227C463.547 94.5227 459.555 93.2102 456.711 90.5852C453.867 87.942 452.445 84.3326 452.445 79.7571V53.9993H460.895V78.4719C460.895 81.5527 461.514 83.8131 462.754 85.2532C463.993 86.6933 466.044 87.4133 468.906 87.4133C471.677 87.4133 473.682 86.6933 474.922 85.2532C476.18 83.7948 476.809 81.5162 476.809 78.4172V53.9993H485.258ZM518.07 93.9758H495.047V53.9993H518.07V60.9446H503.523V69.7219H517.059V76.6672H503.523V86.9758H518.07V93.9758Z" fill="#212121"/>
</g>
<defs>
<linearGradient id="paint0_linear" x1="744" y1="72.0001" x2="-9.74387e-08" y2="72.0001" gradientUnits="userSpaceOnUse">
<stop stop-color="#FFEB3B"/>
<stop offset="1" stop-color="#FFC107"/>
</linearGradient>
<clipPath id="clip0">
<rect width="744" height="144" rx="72" fill="white"/>
</clipPath>
</defs>
</svg>
