<svg width="788" height="442" viewBox="0 0 788 442" fill="none" xmlns="http://www.w3.org/2000/svg">
<path d="M178.623 327.963V320.448H171.108V312.842H178.623V305.327H186.229V312.842H193.699V320.448H186.229V327.963H178.623ZM198.443 332.244V324.775H202.815V304.279H197.077V299.133L207.188 296.81H214.839V324.775H218.665V332.244H198.443ZM237.815 332.882C232.684 332.882 228.721 331.424 225.928 328.509C223.165 325.595 221.783 320.934 221.783 314.527C221.783 308.12 223.165 303.46 225.928 300.545C228.721 297.63 232.684 296.172 237.815 296.172C242.947 296.172 246.894 297.63 249.657 300.545C252.45 303.46 253.847 308.12 253.847 314.527C253.847 320.448 252.557 324.987 249.976 328.145C247.425 331.303 243.372 332.882 237.815 332.882ZM237.815 324.775C239.88 324.775 240.912 323.651 240.912 321.404V307.65C240.912 305.403 239.88 304.279 237.815 304.279C235.75 304.279 234.718 305.403 234.718 307.65V321.404C234.718 323.651 235.75 324.775 237.815 324.775ZM272.084 332.882C266.953 332.882 262.99 331.424 260.197 328.509C257.434 325.595 256.052 320.934 256.052 314.527C256.052 308.12 257.434 303.46 260.197 300.545C262.99 297.63 266.953 296.172 272.084 296.172C277.216 296.172 281.163 297.63 283.926 300.545C286.719 303.46 288.116 308.12 288.116 314.527C288.116 320.448 286.826 324.987 284.245 328.145C281.694 331.303 277.641 332.882 272.084 332.882ZM272.084 324.775C274.149 324.775 275.181 323.651 275.181 321.404V307.65C275.181 305.403 274.149 304.279 272.084 304.279C270.02 304.279 268.987 305.403 268.987 307.65V321.404C268.987 323.651 270.02 324.775 272.084 324.775ZM305.16 332.244V324.775H307.438V304.279H305.16V296.81H332.396V308.606H324.335V304.279H320.19V311.84H327.068V317.032H320.19V324.775H326.157V332.244H305.16ZM334.848 324.775H337.126V304.279H334.848V296.81H355.754C359.67 296.81 362.661 297.615 364.726 299.224C366.791 300.833 367.823 303.444 367.823 307.058C367.823 309.092 367.413 310.853 366.593 312.341C365.774 313.829 364.605 314.861 363.086 315.438L363.132 315.893C366.047 316.349 367.504 318.14 367.504 321.268V324.775H369.645V332.244H355.207V321.541C355.207 320.357 355.025 319.461 354.661 318.854C354.327 318.247 353.78 317.837 353.021 317.624C352.292 317.412 351.245 317.305 349.878 317.305V324.775H352.884V332.244H334.848V324.775ZM352.338 311.749C353.218 311.749 353.871 311.521 354.296 311.066C354.752 310.58 354.979 309.836 354.979 308.834V307.194C354.979 306.192 354.752 305.464 354.296 305.008C353.871 304.522 353.218 304.279 352.338 304.279H349.878V311.749H352.338ZM372.187 332.244V324.775H374.464V304.279H372.187V296.81H402.93V310.565H392.727V304.279H387.216V311.476H391.224V316.668H387.216V324.775H392.727V317.579H402.93V332.244H372.187ZM405.566 332.244V324.775H407.843V304.279H405.566V296.81H436.309V310.565H426.107V304.279H420.596V311.476H424.604V316.668H420.596V324.775H426.107V317.579H436.309V332.244H405.566ZM467.63 332.882C464.715 332.882 461.952 332.639 459.341 332.153C456.76 331.637 454.771 331.06 453.375 330.422V321.404H463.395C463.395 322.346 463.607 323.029 464.032 323.454C464.457 323.879 465.232 324.092 466.355 324.092C467.296 324.092 467.964 323.955 468.359 323.682C468.784 323.378 468.997 322.938 468.997 322.361C468.997 321.875 468.799 321.465 468.405 321.131C468.01 320.767 467.327 320.402 466.355 320.038L462.438 318.672C459.068 317.396 456.639 315.893 455.151 314.163C453.694 312.432 452.965 310.094 452.965 307.149C452.965 303.566 454.134 300.848 456.472 298.996C458.84 297.114 462.772 296.172 468.268 296.172C470.91 296.172 473.384 296.446 475.692 296.992C478.03 297.508 479.912 298.207 481.339 299.087V307.24H472.23C472.23 305.722 471.289 304.963 469.407 304.963C468.496 304.963 467.843 305.084 467.448 305.327C467.084 305.539 466.902 305.934 466.902 306.511C466.902 307.027 467.114 307.437 467.539 307.741C467.995 308.044 468.723 308.363 469.725 308.697L473.688 310.064C476.906 311.157 479.244 312.584 480.702 314.345C482.19 316.076 482.934 318.353 482.934 321.177C482.934 325.033 481.628 327.948 479.017 329.921C476.436 331.895 472.64 332.882 467.63 332.882ZM485.112 324.775H487.389V304.279H485.112V296.81H505.106C509.023 296.81 512.014 297.66 514.079 299.361C516.143 301.031 517.176 303.748 517.176 307.513C517.176 311.278 516.143 314.011 514.079 315.711C512.014 317.381 509.023 318.216 505.106 318.216H500.142V324.775H504.514V332.244H485.112V324.775ZM501.69 311.749C503.451 311.749 504.332 310.777 504.332 308.834V307.194C504.332 306.192 504.104 305.464 503.649 305.008C503.224 304.522 502.571 304.279 501.69 304.279H500.142V311.749H501.69ZM519.648 332.244V324.775H521.925V304.279H519.648V296.81H536.955V304.279H534.678V324.775H536.955V332.244H519.648ZM565.918 296.81H580.857V304.279H578.58V332.244H565.782L552.437 311.703V324.775H554.623V332.244H539.684V324.775H541.961V304.279H539.684V296.81H556.126L568.104 315.074V304.279H565.918V296.81ZM597.635 332.882C594.72 332.882 591.957 332.639 589.346 332.153C586.765 331.637 584.776 331.06 583.379 330.422V321.404H593.399C593.399 322.346 593.612 323.029 594.037 323.454C594.462 323.879 595.236 324.092 596.36 324.092C597.301 324.092 597.969 323.955 598.364 323.682C598.789 323.378 599.001 322.938 599.001 322.361C599.001 321.875 598.804 321.465 598.409 321.131C598.015 320.767 597.331 320.402 596.36 320.038L592.443 318.672C589.073 317.396 586.644 315.893 585.156 314.163C583.698 312.432 582.97 310.094 582.97 307.149C582.97 303.566 584.139 300.848 586.477 298.996C588.845 297.114 592.777 296.172 598.273 296.172C600.914 296.172 603.389 296.446 605.697 296.992C608.035 297.508 609.917 298.207 611.344 299.087V307.24H602.235C602.235 305.722 601.294 304.963 599.411 304.963C598.5 304.963 597.848 305.084 597.453 305.327C597.089 305.539 596.906 305.934 596.906 306.511C596.906 307.027 597.119 307.437 597.544 307.741C597.999 308.044 598.728 308.363 599.73 308.697L603.693 310.064C606.911 311.157 609.249 312.584 610.707 314.345C612.194 316.076 612.938 318.353 612.938 321.177C612.938 325.033 611.633 327.948 609.021 329.921C606.441 331.895 602.645 332.882 597.635 332.882Z" fill="url(#paint0_linear)"/>
<path d="M178.623 327.963V320.448H171.108V312.842H178.623V305.327H186.229V312.842H193.699V320.448H186.229V327.963H178.623ZM198.443 332.244V324.775H202.815V304.279H197.077V299.133L207.188 296.81H214.839V324.775H218.665V332.244H198.443ZM237.815 332.882C232.684 332.882 228.721 331.424 225.928 328.509C223.165 325.595 221.783 320.934 221.783 314.527C221.783 308.12 223.165 303.46 225.928 300.545C228.721 297.63 232.684 296.172 237.815 296.172C242.947 296.172 246.894 297.63 249.657 300.545C252.45 303.46 253.847 308.12 253.847 314.527C253.847 320.448 252.557 324.987 249.976 328.145C247.425 331.303 243.372 332.882 237.815 332.882ZM237.815 324.775C239.88 324.775 240.912 323.651 240.912 321.404V307.65C240.912 305.403 239.88 304.279 237.815 304.279C235.75 304.279 234.718 305.403 234.718 307.65V321.404C234.718 323.651 235.75 324.775 237.815 324.775ZM272.084 332.882C266.953 332.882 262.99 331.424 260.197 328.509C257.434 325.595 256.052 320.934 256.052 314.527C256.052 308.12 257.434 303.46 260.197 300.545C262.99 297.63 266.953 296.172 272.084 296.172C277.216 296.172 281.163 297.63 283.926 300.545C286.719 303.46 288.116 308.12 288.116 314.527C288.116 320.448 286.826 324.987 284.245 328.145C281.694 331.303 277.641 332.882 272.084 332.882ZM272.084 324.775C274.149 324.775 275.181 323.651 275.181 321.404V307.65C275.181 305.403 274.149 304.279 272.084 304.279C270.02 304.279 268.987 305.403 268.987 307.65V321.404C268.987 323.651 270.02 324.775 272.084 324.775ZM305.16 332.244V324.775H307.438V304.279H305.16V296.81H332.396V308.606H324.335V304.279H320.19V311.84H327.068V317.032H320.19V324.775H326.157V332.244H305.16ZM334.848 324.775H337.126V304.279H334.848V296.81H355.754C359.67 296.81 362.661 297.615 364.726 299.224C366.791 300.833 367.823 303.444 367.823 307.058C367.823 309.092 367.413 310.853 366.593 312.341C365.774 313.829 364.605 314.861 363.086 315.438L363.132 315.893C366.047 316.349 367.504 318.14 367.504 321.268V324.775H369.645V332.244H355.207V321.541C355.207 320.357 355.025 319.461 354.661 318.854C354.327 318.247 353.78 317.837 353.021 317.624C352.292 317.412 351.245 317.305 349.878 317.305V324.775H352.884V332.244H334.848V324.775ZM352.338 311.749C353.218 311.749 353.871 311.521 354.296 311.066C354.752 310.58 354.979 309.836 354.979 308.834V307.194C354.979 306.192 354.752 305.464 354.296 305.008C353.871 304.522 353.218 304.279 352.338 304.279H349.878V311.749H352.338ZM372.187 332.244V324.775H374.464V304.279H372.187V296.81H402.93V310.565H392.727V304.279H387.216V311.476H391.224V316.668H387.216V324.775H392.727V317.579H402.93V332.244H372.187ZM405.566 332.244V324.775H407.843V304.279H405.566V296.81H436.309V310.565H426.107V304.279H420.596V311.476H424.604V316.668H420.596V324.775H426.107V317.579H436.309V332.244H405.566ZM467.63 332.882C464.715 332.882 461.952 332.639 459.341 332.153C456.76 331.637 454.771 331.06 453.375 330.422V321.404H463.395C463.395 322.346 463.607 323.029 464.032 323.454C464.457 323.879 465.232 324.092 466.355 324.092C467.296 324.092 467.964 323.955 468.359 323.682C468.784 323.378 468.997 322.938 468.997 322.361C468.997 321.875 468.799 321.465 468.405 321.131C468.01 320.767 467.327 320.402 466.355 320.038L462.438 318.672C459.068 317.396 456.639 315.893 455.151 314.163C453.694 312.432 452.965 310.094 452.965 307.149C452.965 303.566 454.134 300.848 456.472 298.996C458.84 297.114 462.772 296.172 468.268 296.172C470.91 296.172 473.384 296.446 475.692 296.992C478.03 297.508 479.912 298.207 481.339 299.087V307.24H472.23C472.23 305.722 471.289 304.963 469.407 304.963C468.496 304.963 467.843 305.084 467.448 305.327C467.084 305.539 466.902 305.934 466.902 306.511C466.902 307.027 467.114 307.437 467.539 307.741C467.995 308.044 468.723 308.363 469.725 308.697L473.688 310.064C476.906 311.157 479.244 312.584 480.702 314.345C482.19 316.076 482.934 318.353 482.934 321.177C482.934 325.033 481.628 327.948 479.017 329.921C476.436 331.895 472.64 332.882 467.63 332.882ZM485.112 324.775H487.389V304.279H485.112V296.81H505.106C509.023 296.81 512.014 297.66 514.079 299.361C516.143 301.031 517.176 303.748 517.176 307.513C517.176 311.278 516.143 314.011 514.079 315.711C512.014 317.381 509.023 318.216 505.106 318.216H500.142V324.775H504.514V332.244H485.112V324.775ZM501.69 311.749C503.451 311.749 504.332 310.777 504.332 308.834V307.194C504.332 306.192 504.104 305.464 503.649 305.008C503.224 304.522 502.571 304.279 501.69 304.279H500.142V311.749H501.69ZM519.648 332.244V324.775H521.925V304.279H519.648V296.81H536.955V304.279H534.678V324.775H536.955V332.244H519.648ZM565.918 296.81H580.857V304.279H578.58V332.244H565.782L552.437 311.703V324.775H554.623V332.244H539.684V324.775H541.961V304.279H539.684V296.81H556.126L568.104 315.074V304.279H565.918V296.81ZM597.635 332.882C594.72 332.882 591.957 332.639 589.346 332.153C586.765 331.637 584.776 331.06 583.379 330.422V321.404H593.399C593.399 322.346 593.612 323.029 594.037 323.454C594.462 323.879 595.236 324.092 596.36 324.092C597.301 324.092 597.969 323.955 598.364 323.682C598.789 323.378 599.001 322.938 599.001 322.361C599.001 321.875 598.804 321.465 598.409 321.131C598.015 320.767 597.331 320.402 596.36 320.038L592.443 318.672C589.073 317.396 586.644 315.893 585.156 314.163C583.698 312.432 582.97 310.094 582.97 307.149C582.97 303.566 584.139 300.848 586.477 298.996C588.845 297.114 592.777 296.172 598.273 296.172C600.914 296.172 603.389 296.446 605.697 296.992C608.035 297.508 609.917 298.207 611.344 299.087V307.24H602.235C602.235 305.722 601.294 304.963 599.411 304.963C598.5 304.963 597.848 305.084 597.453 305.327C597.089 305.539 596.906 305.934 596.906 306.511C596.906 307.027 597.119 307.437 597.544 307.741C597.999 308.044 598.728 308.363 599.73 308.697L603.693 310.064C606.911 311.157 609.249 312.584 610.707 314.345C612.194 316.076 612.938 318.353 612.938 321.177C612.938 325.033 611.633 327.948 609.021 329.921C606.441 331.895 602.645 332.882 597.635 332.882Z" fill="white"/>
<g opacity="0.3">
<path d="M183.1 409.005H184.922V416.475H167.068V409.005H169.801L169.072 405.362H162.878L162.15 409.005H164.882V416.475H149.306V409.005H151.128L158.825 381.04H175.403L183.1 409.005ZM163.88 400.534H168.07L166.203 391.47H165.748L163.88 400.534ZM213.509 381.04H228.448V388.51H226.171V416.475H213.373L200.028 395.934V409.005H202.214V416.475H187.275V409.005H189.552V388.51H187.275V381.04H203.717L215.695 399.304V388.51H213.509V381.04ZM231.107 409.005H233.384V388.555H231.107V381.04H249.598C254.669 381.04 258.692 382.437 261.668 385.231C264.674 387.994 266.177 392.503 266.177 398.758C266.177 405.012 264.674 409.537 261.668 412.33C258.692 415.093 254.669 416.475 249.598 416.475H231.107V409.005ZM248.779 409.005C249.811 409.005 250.585 408.732 251.101 408.185C251.618 407.639 251.876 406.789 251.876 405.635V391.88C251.876 389.633 250.843 388.51 248.779 388.51H246.137V409.005H248.779ZM333.425 388.51H331.148V409.005H333.425V416.475H316.209V409.005H318.395V393.064L310.652 416.475H303.912L295.941 393.292V409.005H298.128V416.475H283.189V409.005H285.466V388.51H283.189V381.04H304.048L308.785 395.251L313.34 381.04H333.425V388.51ZM353.172 417.112C348.405 417.112 344.716 416.065 342.105 413.97C339.524 411.875 338.234 408.474 338.234 403.768V388.51H335.956V381.04H352.808V388.51H350.986V406.09C350.986 407.092 351.199 407.836 351.624 408.322C352.079 408.777 352.747 409.005 353.628 409.005C354.508 409.005 355.161 408.777 355.586 408.322C356.042 407.836 356.269 407.092 356.269 406.09V388.51H354.448V381.04H370.07V388.51H367.792V403.768C367.792 408.474 366.532 411.875 364.012 413.97C361.492 416.065 357.879 417.112 353.172 417.112ZM390.303 417.112C384.564 417.112 380.131 415.655 377.004 412.74C373.907 409.825 372.358 405.164 372.358 398.758C372.358 386.521 378.31 380.403 390.212 380.403C393.097 380.403 395.769 380.752 398.228 381.45C400.718 382.149 402.57 382.923 403.784 383.773V395.159H392.854V391.88C392.854 390.726 392.596 389.876 392.079 389.33C391.563 388.783 390.789 388.51 389.757 388.51C388.724 388.51 387.95 388.783 387.434 389.33C386.918 389.876 386.66 390.726 386.66 391.88V405.635C386.66 406.789 386.918 407.639 387.434 408.185C387.95 408.732 388.724 409.005 389.757 409.005C390.789 409.005 391.563 408.732 392.079 408.185C392.596 407.639 392.854 406.789 392.854 405.635V401.946H403.784V413.742C402.54 414.592 400.687 415.366 398.228 416.065C395.799 416.763 393.157 417.112 390.303 417.112ZM442.848 388.51H440.57V409.005H442.848V416.475H425.632V409.005H427.818V401.49H421.441V409.005H423.628V416.475H406.412V409.005H408.689V388.51H406.412V381.04H423.628V388.51H421.441V395.433H427.818V388.51H425.632V381.04H442.848V388.51ZM510.375 388.51H508.098V409.005H510.375V416.475H493.159V409.005H495.345V393.064L487.603 416.475H480.862L472.891 393.292V409.005H475.078V416.475H460.139V409.005H462.416V388.51H460.139V381.04H480.998L485.735 395.251L490.29 381.04H510.375V388.51ZM530.214 417.112C524.657 417.112 520.361 415.655 517.324 412.74C514.318 409.825 512.815 405.164 512.815 398.758C512.815 392.351 514.318 387.69 517.324 384.775C520.361 381.86 524.657 380.403 530.214 380.403C535.77 380.403 540.051 381.86 543.057 384.775C546.094 387.69 547.612 392.351 547.612 398.758C547.612 405.164 546.094 409.825 543.057 412.74C540.051 415.655 535.77 417.112 530.214 417.112ZM530.214 409.005C531.246 409.005 532.02 408.732 532.536 408.185C533.053 407.639 533.311 406.789 533.311 405.635V391.88C533.311 390.726 533.053 389.876 532.536 389.33C532.02 388.783 531.246 388.51 530.214 388.51C529.181 388.51 528.407 388.783 527.891 389.33C527.375 389.876 527.117 390.726 527.117 391.88V405.635C527.117 406.819 527.375 407.684 527.891 408.231C528.407 408.747 529.181 409.005 530.214 409.005ZM550.071 409.005H552.348V388.51H550.071V381.04H570.976C574.893 381.04 577.884 381.845 579.949 383.454C582.013 385.064 583.046 387.675 583.046 391.288C583.046 393.322 582.636 395.084 581.816 396.571C580.996 398.059 579.827 399.092 578.309 399.668L578.354 400.124C581.269 400.579 582.727 402.371 582.727 405.498V409.005H584.867V416.475H570.43V405.771C570.43 404.587 570.247 403.692 569.883 403.084C569.549 402.477 569.003 402.067 568.243 401.855C567.515 401.642 566.467 401.536 565.101 401.536V409.005H568.107V416.475H550.071V409.005ZM567.56 395.979C568.441 395.979 569.094 395.752 569.519 395.296C569.974 394.81 570.202 394.066 570.202 393.064V391.425C570.202 390.423 569.974 389.694 569.519 389.239C569.094 388.753 568.441 388.51 567.56 388.51H565.101V395.979H567.56ZM587.409 416.475V409.005H589.686V388.51H587.409V381.04H618.152V394.795H607.95V388.51H602.439V395.706H606.447V400.898H602.439V409.005H607.95V401.809H618.152V416.475H587.409ZM622.884 406.5L620.789 383.318V381.04H634.407V383.318L632.266 406.5H622.884ZM622.428 416.475V409.005H632.722V416.475H622.428Z" fill="url(#paint1_linear)"/>
<path d="M183.1 409.005H184.922V416.475H167.068V409.005H169.801L169.072 405.362H162.878L162.15 409.005H164.882V416.475H149.306V409.005H151.128L158.825 381.04H175.403L183.1 409.005ZM163.88 400.534H168.07L166.203 391.47H165.748L163.88 400.534ZM213.509 381.04H228.448V388.51H226.171V416.475H213.373L200.028 395.934V409.005H202.214V416.475H187.275V409.005H189.552V388.51H187.275V381.04H203.717L215.695 399.304V388.51H213.509V381.04ZM231.107 409.005H233.384V388.555H231.107V381.04H249.598C254.669 381.04 258.692 382.437 261.668 385.231C264.674 387.994 266.177 392.503 266.177 398.758C266.177 405.012 264.674 409.537 261.668 412.33C258.692 415.093 254.669 416.475 249.598 416.475H231.107V409.005ZM248.779 409.005C249.811 409.005 250.585 408.732 251.101 408.185C251.618 407.639 251.876 406.789 251.876 405.635V391.88C251.876 389.633 250.843 388.51 248.779 388.51H246.137V409.005H248.779ZM333.425 388.51H331.148V409.005H333.425V416.475H316.209V409.005H318.395V393.064L310.652 416.475H303.912L295.941 393.292V409.005H298.128V416.475H283.189V409.005H285.466V388.51H283.189V381.04H304.048L308.785 395.251L313.34 381.04H333.425V388.51ZM353.172 417.112C348.405 417.112 344.716 416.065 342.105 413.97C339.524 411.875 338.234 408.474 338.234 403.768V388.51H335.956V381.04H352.808V388.51H350.986V406.09C350.986 407.092 351.199 407.836 351.624 408.322C352.079 408.777 352.747 409.005 353.628 409.005C354.508 409.005 355.161 408.777 355.586 408.322C356.042 407.836 356.269 407.092 356.269 406.09V388.51H354.448V381.04H370.07V388.51H367.792V403.768C367.792 408.474 366.532 411.875 364.012 413.97C361.492 416.065 357.879 417.112 353.172 417.112ZM390.303 417.112C384.564 417.112 380.131 415.655 377.004 412.74C373.907 409.825 372.358 405.164 372.358 398.758C372.358 386.521 378.31 380.403 390.212 380.403C393.097 380.403 395.769 380.752 398.228 381.45C400.718 382.149 402.57 382.923 403.784 383.773V395.159H392.854V391.88C392.854 390.726 392.596 389.876 392.079 389.33C391.563 388.783 390.789 388.51 389.757 388.51C388.724 388.51 387.95 388.783 387.434 389.33C386.918 389.876 386.66 390.726 386.66 391.88V405.635C386.66 406.789 386.918 407.639 387.434 408.185C387.95 408.732 388.724 409.005 389.757 409.005C390.789 409.005 391.563 408.732 392.079 408.185C392.596 407.639 392.854 406.789 392.854 405.635V401.946H403.784V413.742C402.54 414.592 400.687 415.366 398.228 416.065C395.799 416.763 393.157 417.112 390.303 417.112ZM442.848 388.51H440.57V409.005H442.848V416.475H425.632V409.005H427.818V401.49H421.441V409.005H423.628V416.475H406.412V409.005H408.689V388.51H406.412V381.04H423.628V388.51H421.441V395.433H427.818V388.51H425.632V381.04H442.848V388.51ZM510.375 388.51H508.098V409.005H510.375V416.475H493.159V409.005H495.345V393.064L487.603 416.475H480.862L472.891 393.292V409.005H475.078V416.475H460.139V409.005H462.416V388.51H460.139V381.04H480.998L485.735 395.251L490.29 381.04H510.375V388.51ZM530.214 417.112C524.657 417.112 520.361 415.655 517.324 412.74C514.318 409.825 512.815 405.164 512.815 398.758C512.815 392.351 514.318 387.69 517.324 384.775C520.361 381.86 524.657 380.403 530.214 380.403C535.77 380.403 540.051 381.86 543.057 384.775C546.094 387.69 547.612 392.351 547.612 398.758C547.612 405.164 546.094 409.825 543.057 412.74C540.051 415.655 535.77 417.112 530.214 417.112ZM530.214 409.005C531.246 409.005 532.02 408.732 532.536 408.185C533.053 407.639 533.311 406.789 533.311 405.635V391.88C533.311 390.726 533.053 389.876 532.536 389.33C532.02 388.783 531.246 388.51 530.214 388.51C529.181 388.51 528.407 388.783 527.891 389.33C527.375 389.876 527.117 390.726 527.117 391.88V405.635C527.117 406.819 527.375 407.684 527.891 408.231C528.407 408.747 529.181 409.005 530.214 409.005ZM550.071 409.005H552.348V388.51H550.071V381.04H570.976C574.893 381.04 577.884 381.845 579.949 383.454C582.013 385.064 583.046 387.675 583.046 391.288C583.046 393.322 582.636 395.084 581.816 396.571C580.996 398.059 579.827 399.092 578.309 399.668L578.354 400.124C581.269 400.579 582.727 402.371 582.727 405.498V409.005H584.867V416.475H570.43V405.771C570.43 404.587 570.247 403.692 569.883 403.084C569.549 402.477 569.003 402.067 568.243 401.855C567.515 401.642 566.467 401.536 565.101 401.536V409.005H568.107V416.475H550.071V409.005ZM567.56 395.979C568.441 395.979 569.094 395.752 569.519 395.296C569.974 394.81 570.202 394.066 570.202 393.064V391.425C570.202 390.423 569.974 389.694 569.519 389.239C569.094 388.753 568.441 388.51 567.56 388.51H565.101V395.979H567.56ZM587.409 416.475V409.005H589.686V388.51H587.409V381.04H618.152V394.795H607.95V388.51H602.439V395.706H606.447V400.898H602.439V409.005H607.95V401.809H618.152V416.475H587.409ZM622.884 406.5L620.789 383.318V381.04H634.407V383.318L632.266 406.5H622.884ZM622.428 416.475V409.005H632.722V416.475H622.428Z" fill="white"/>
</g>
<path d="M94.3499 7.27535H115.609V18.1705H112.951L103.053 58.9609H83.189L77.1435 30.2615H76.4792L70.1015 58.9609H50.2378L39.6748 18.1705H37.0175V7.27535H61.598V18.1705H59.0735L61.6644 35.1112H62.3288L68.64 7.27535H87.773L93.6191 35.1112H94.2835L96.8744 18.1705H94.3499V7.27535ZM119.065 58.9609V48.0658H122.387V18.1705H119.065V7.27535H163.908V27.3384H149.027V18.1705H140.989V28.6671H146.835V36.2405H140.989V48.0658H149.027V37.5692H163.908V58.9609H119.065ZM167.754 58.9609V48.0658H171.076V18.1705H167.754V7.27535H195.789V18.1705H189.677V48.0658H195.656V41.9539H208.877V58.9609H167.754ZM238.262 59.891C229.891 59.891 223.425 57.7651 218.863 53.5134C214.346 49.2616 212.087 42.4632 212.087 33.1181C212.087 15.2696 220.768 6.34528 238.129 6.34528C242.336 6.34528 246.234 6.85461 249.821 7.87326C253.453 8.89191 256.155 10.0213 257.926 11.2614V27.8699H241.982V23.0866C241.982 21.4036 241.606 20.1635 240.853 19.3663C240.1 18.5691 238.97 18.1705 237.465 18.1705C235.959 18.1705 234.829 18.5691 234.076 19.3663C233.324 20.1635 232.947 21.4036 232.947 23.0866V43.1497C232.947 44.8327 233.324 46.0728 234.076 46.87C234.829 47.6672 235.959 48.0658 237.465 48.0658C238.97 48.0658 240.1 47.6672 240.853 46.87C241.606 46.0728 241.982 44.8327 241.982 43.1497V37.7685H257.926V54.9749C256.11 56.215 253.409 57.3444 249.821 58.363C246.278 59.3817 242.425 59.891 238.262 59.891ZM286.737 59.891C278.632 59.891 272.365 57.7651 267.937 53.5134C263.552 49.2616 261.36 42.4632 261.36 33.1181C261.36 23.7731 263.552 16.9747 267.937 12.7229C272.365 8.47117 278.632 6.34528 286.737 6.34528C294.842 6.34528 301.087 8.47117 305.472 12.7229C309.901 16.9747 312.115 23.7731 312.115 33.1181C312.115 42.4632 309.901 49.2616 305.472 53.5134C301.087 57.7651 294.842 59.891 286.737 59.891ZM286.737 48.0658C288.243 48.0658 289.373 47.6672 290.125 46.87C290.878 46.0728 291.255 44.8327 291.255 43.1497V23.0866C291.255 21.4036 290.878 20.1635 290.125 19.3663C289.373 18.5691 288.243 18.1705 286.737 18.1705C285.231 18.1705 284.102 18.5691 283.349 19.3663C282.596 20.1635 282.22 21.4036 282.22 23.0866V43.1497C282.22 44.8769 282.596 46.1392 283.349 46.9364C284.102 47.6893 285.231 48.0658 286.737 48.0658ZM388.979 18.1705H385.657V48.0658H388.979V58.9609H363.867V48.0658H367.055V24.8139L355.762 58.9609H345.929L334.303 25.1461V48.0658H337.492V58.9609H315.702V48.0658H319.024V18.1705H315.702V7.27535H346.129L353.038 28.0027L359.681 7.27535H388.979V18.1705ZM392.937 58.9609V48.0658H396.258V18.1705H392.937V7.27535H437.779V27.3384H422.898V18.1705H414.86V28.6671H420.706V36.2405H414.86V48.0658H422.898V37.5692H437.779V58.9609H392.937ZM462.871 48.0658H466.193V18.1705H462.871V7.27535H493.364C498.901 7.27535 503.219 8.40473 506.319 10.6635C509.419 12.9222 510.969 16.1554 510.969 20.3628C510.969 22.9759 510.349 25.1904 509.109 27.0062C507.869 28.7778 506.408 30.1286 504.725 31.0587C503.086 31.9445 501.491 32.5424 499.941 32.8524V33.5168C503.086 33.8268 505.92 34.8233 508.445 36.5063C510.969 38.1893 512.232 41.2009 512.232 45.5413C512.232 50.1917 510.482 53.6019 506.983 55.7721C503.485 57.898 498.945 58.9609 493.364 58.9609H462.871V48.0658ZM488.382 29.0657C489.666 29.0657 490.618 28.7335 491.239 28.0692C491.903 27.3605 492.235 26.2755 492.235 24.8139V22.4223C492.235 20.9607 491.903 19.8978 491.239 19.2335C490.618 18.5248 489.666 18.1705 488.382 18.1705H484.794V29.0657H488.382ZM488.847 48.0658C490.131 48.0658 491.084 47.7336 491.704 47.0693C492.368 46.3606 492.7 45.2756 492.7 43.814V40.8909C492.7 39.4294 492.368 38.3664 491.704 37.7021C491.084 36.9935 490.131 36.6391 488.847 36.6391H484.794V48.0658H488.847ZM540.691 59.891C532.586 59.891 526.319 57.7651 521.891 53.5134C517.506 49.2616 515.314 42.4632 515.314 33.1181C515.314 23.7731 517.506 16.9747 521.891 12.7229C526.319 8.47117 532.586 6.34528 540.691 6.34528C548.796 6.34528 555.041 8.47117 559.426 12.7229C563.855 16.9747 566.069 23.7731 566.069 33.1181C566.069 42.4632 563.855 49.2616 559.426 53.5134C555.041 57.7651 548.796 59.891 540.691 59.891ZM540.691 48.0658C542.197 48.0658 543.327 47.6672 544.079 46.87C544.832 46.0728 545.209 44.8327 545.209 43.1497V23.0866C545.209 21.4036 544.832 20.1635 544.079 19.3663C543.327 18.5691 542.197 18.1705 540.691 18.1705C539.185 18.1705 538.056 18.5691 537.303 19.3663C536.55 20.1635 536.174 21.4036 536.174 23.0866V43.1497C536.174 44.8769 536.55 46.1392 537.303 46.9364C538.056 47.6893 539.185 48.0658 540.691 48.0658ZM607.922 7.27535H629.712V18.1705H626.391V58.9609H607.723L588.257 28.9992V48.0658H591.446V58.9609H569.656V48.0658H572.978V18.1705H569.656V7.27535H593.639L611.111 33.9154V18.1705H607.922V7.27535ZM658.437 59.891C651.484 59.891 646.102 58.363 642.294 55.3071C638.529 52.2511 636.647 47.2907 636.647 40.4259V18.1705H633.325V7.27535H657.906V18.1705H655.248V43.814C655.248 45.2756 655.558 46.3606 656.178 47.0693C656.843 47.7336 657.817 48.0658 659.101 48.0658C660.386 48.0658 661.338 47.7336 661.958 47.0693C662.622 46.3606 662.955 45.2756 662.955 43.814V18.1705H660.297V7.27535H683.084V18.1705H679.762V40.4259C679.762 47.2907 677.924 52.2511 674.248 55.3071C670.572 58.363 665.302 59.891 658.437 59.891ZM707.415 59.891C703.164 59.891 699.133 59.5367 695.325 58.8281C691.56 58.0752 688.659 57.2337 686.622 56.3036V43.1497H701.237C701.237 44.5226 701.547 45.5191 702.167 46.1392C702.787 46.7592 703.917 47.0693 705.555 47.0693C706.928 47.0693 707.903 46.87 708.478 46.4714C709.098 46.0285 709.409 45.3863 709.409 44.5448C709.409 43.8362 709.121 43.2382 708.545 42.7511C707.969 42.2196 706.973 41.6881 705.555 41.1567L699.842 39.1636C694.926 37.3035 691.383 35.1112 689.213 32.5867C687.087 30.0622 686.024 26.6519 686.024 22.3559C686.024 17.1297 687.729 13.1658 691.139 10.4642C694.594 7.71825 700.329 6.34528 708.346 6.34528C712.199 6.34528 715.808 6.74388 719.174 7.54109C722.585 8.29401 725.331 9.31266 727.412 10.5971V22.4887H714.125C714.125 20.2743 712.752 19.167 710.006 19.167C708.678 19.167 707.726 19.3442 707.15 19.6985C706.618 20.0085 706.353 20.5843 706.353 21.4258C706.353 22.1787 706.663 22.7766 707.283 23.2195C707.947 23.6624 709.01 24.1274 710.471 24.6146L716.251 26.6076C720.946 28.202 724.356 30.2836 726.482 32.8524C728.652 35.3769 729.737 38.6986 729.737 42.8175C729.737 48.4422 727.833 52.694 724.024 55.5728C720.259 58.4516 714.723 59.891 707.415 59.891ZM191.443 229.961V206.616H205.108V142.561H187.172V126.476L218.773 119.217H242.687V206.616H254.644V229.961H191.443ZM314.494 231.954C298.457 231.954 286.073 227.399 277.342 218.289C268.707 209.179 264.389 194.612 264.389 174.589C264.389 154.566 268.707 139.999 277.342 130.889C286.073 121.779 298.457 117.224 314.494 117.224C330.532 117.224 342.868 121.779 351.504 130.889C360.234 139.999 364.599 154.566 364.599 174.589C364.599 193.094 360.566 207.281 352.5 217.15C344.529 227.019 331.86 231.954 314.494 231.954ZM314.494 206.616C320.947 206.616 324.173 203.105 324.173 196.083V153.095C324.173 146.073 320.947 142.561 314.494 142.561C308.041 142.561 304.815 146.073 304.815 153.095V196.083C304.815 203.105 308.041 206.616 314.494 206.616ZM421.597 231.954C405.56 231.954 393.176 227.399 384.445 218.289C375.81 209.179 371.492 194.612 371.492 174.589C371.492 154.566 375.81 139.999 384.445 130.889C393.176 121.779 405.56 117.224 421.597 117.224C437.635 117.224 449.971 121.779 458.607 130.889C467.337 139.999 471.703 154.566 471.703 174.589C471.703 193.094 467.669 207.281 459.603 217.15C451.632 227.019 438.963 231.954 421.597 231.954ZM421.597 206.616C428.05 206.616 431.277 203.105 431.277 196.083V153.095C431.277 146.073 428.05 142.561 421.597 142.561C415.144 142.561 411.918 146.073 411.918 153.095V196.083C411.918 203.105 415.144 206.616 421.597 206.616ZM504.075 175.016C488.607 175.016 480.873 165.526 480.873 146.547C480.873 136.488 482.865 129.181 486.851 124.626C490.837 120.071 496.578 117.793 504.075 117.793C519.638 117.793 527.419 127.378 527.419 146.547C527.419 155.752 525.569 162.822 521.868 167.756C518.167 172.596 512.236 175.016 504.075 175.016ZM504.075 162.632C506.827 162.632 508.203 160.876 508.203 157.365V135.302C508.203 131.885 506.827 130.177 504.075 130.177C501.418 130.177 500.089 131.885 500.089 135.302V157.365C500.089 160.876 501.418 162.632 504.075 162.632ZM499.235 229.961V225.406L565.425 119.217H579.944V123.772L513.897 229.961H499.235ZM574.962 231.384C559.494 231.384 551.76 221.895 551.76 202.915C551.76 192.856 553.753 185.549 557.739 180.994C561.724 176.439 567.466 174.162 574.962 174.162C590.525 174.162 598.307 183.746 598.307 202.915C598.307 212.12 596.456 219.19 592.756 224.125C589.055 228.965 583.124 231.384 574.962 231.384ZM574.962 219C577.714 219 579.09 217.245 579.09 213.734V191.67C579.09 188.254 577.714 186.546 574.962 186.546C572.305 186.546 570.977 188.254 570.977 191.67V213.734C570.977 217.245 572.305 219 574.962 219Z" fill="url(#paint2_linear)"/>
<defs>
<linearGradient id="paint0_linear" x1="480.234" y1="338.605" x2="266.301" y2="200.792" gradientUnits="userSpaceOnUse">
<stop stop-color="#FFEB3B"/>
<stop offset="1" stop-color="#FFC107"/>
</linearGradient>
<linearGradient id="paint1_linear" x1="488.885" y1="422.835" x2="267.581" y2="266.805" gradientUnits="userSpaceOnUse">
<stop stop-color="#FFEB3B"/>
<stop offset="1" stop-color="#FFC107"/>
</linearGradient>
<linearGradient id="paint2_linear" x1="550.284" y1="202.023" x2="74.524" y2="33.9905" gradientUnits="userSpaceOnUse">
<stop stop-color="#FFEB3B"/>
<stop offset="1" stop-color="#FFC107"/>
</linearGradient>
</defs>
</svg>
