<svg xmlns="http://www.w3.org/2000/svg" fill="none" viewBox="0 0 357 88"><defs/><path fill="#fff" fill-opacity=".9" d="M130.8 39l-4.85-7.02h-5.37V39h-5.83V13.8h10.91c2.23 0 4.16.37 5.8 1.12a8.62 8.62 0 013.81 3.16 8.73 8.73 0 011.33 4.86c0 1.88-.45 3.5-1.36 4.86a8.49 8.49 0 01-3.82 3.1l5.65 8.1h-6.26zm-.1-16.06c0-1.41-.46-2.5-1.37-3.24-.91-.76-2.24-1.15-4-1.15h-4.75v8.79h4.76c1.75 0 3.08-.39 4-1.16a4 4 0 001.36-3.24zm19.34 16.35c-2.04 0-3.87-.42-5.5-1.26a9.66 9.66 0 01-5.15-8.71c0-1.92.45-3.64 1.37-5.15a9.4 9.4 0 013.78-3.53c1.63-.86 3.46-1.3 5.5-1.3s3.87.44 5.48 1.3a9.4 9.4 0 013.78 3.53 9.77 9.77 0 011.36 5.15c0 1.92-.45 3.63-1.36 5.14a9.66 9.66 0 01-3.78 3.57c-1.61.84-3.44 1.26-5.48 1.26zm0-4.61c1.44 0 2.62-.48 3.53-1.44.94-.98 1.4-2.3 1.4-3.92 0-1.64-.46-2.93-1.4-3.9a4.6 4.6 0 00-3.53-1.47 4.7 4.7 0 00-3.56 1.48 5.33 5.33 0 00-1.4 3.89c0 1.63.46 2.94 1.4 3.92a4.77 4.77 0 003.56 1.44zm23.74 4.6c-2.07 0-3.93-.41-5.58-1.25a9.86 9.86 0 01-3.85-3.57 9.77 9.77 0 01-1.37-5.14c0-1.92.45-3.64 1.37-5.15a9.6 9.6 0 013.85-3.53c1.65-.86 3.51-1.3 5.58-1.3 2.04 0 3.81.44 5.33 1.3a7.47 7.47 0 013.34 3.64l-4.35 2.34a4.76 4.76 0 00-4.36-2.67c-1.46 0-2.67.48-3.63 1.44a5.3 5.3 0 00-1.44 3.93 5.3 5.3 0 001.44 3.92 4.93 4.93 0 003.63 1.44c1.92 0 3.37-.89 4.36-2.66l4.35 2.37a7.71 7.71 0 01-3.34 3.6c-1.52.87-3.3 1.3-5.33 1.3zm20.08-7.88l-2.7 2.67V39h-5.61V12.29h5.61V27.4l8.21-7.78h6.7L198 27.84 206.8 39h-6.8l-6.13-7.6zm33.58-2.01l-.1 1.51h-14.66c.26 1.2.89 2.15 1.87 2.84a6.2 6.2 0 003.67 1.05c1.01 0 1.9-.15 2.67-.43.8-.32 1.52-.8 2.2-1.44l2.98 3.24c-1.82 2.08-4.48 3.13-7.99 3.13a12.8 12.8 0 01-5.8-1.26 9.49 9.49 0 01-3.88-3.57 9.77 9.77 0 01-1.37-5.14c0-1.9.44-3.6 1.33-5.12a9.45 9.45 0 013.7-3.56c1.6-.86 3.36-1.3 5.3-1.3 1.9 0 3.61.41 5.15 1.23 1.53.81 2.74 1.99 3.6 3.53a10.26 10.26 0 011.33 5.29zm-10.04-5.8c-1.28 0-2.34.36-3.2 1.08a4.6 4.6 0 00-1.6 2.95h9.55a4.69 4.69 0 00-4.75-4.03zm26.27 14.47a6 6 0 01-2.05.94c-.8.2-1.63.29-2.52.29-2.3 0-4.1-.59-5.36-1.77-1.25-1.17-1.88-2.9-1.88-5.18v-7.96h-2.98v-4.32h2.98v-4.71h5.62v4.71h4.82v4.32h-4.82v7.89c0 .81.2 1.45.61 1.9.43.44 1.03.65 1.8.65a3.6 3.6 0 002.27-.72l1.51 3.96zm24.65-24.26c2.24 0 4.17.37 5.8 1.12a8.62 8.62 0 013.82 3.16 8.73 8.73 0 011.33 4.86c0 1.85-.45 3.47-1.33 4.86a8.62 8.62 0 01-3.82 3.17 14.28 14.28 0 01-5.8 1.08h-5.07V39h-5.83V13.8h10.9zM268 27.3c1.75 0 3.08-.37 4-1.12a4 4 0 001.36-3.24c0-1.41-.45-2.5-1.36-3.24-.92-.76-2.25-1.15-4-1.15h-4.75v8.75H268zm15.39-15.01H289V39h-5.61V12.29zm18.64 7.05c3 0 5.3.72 6.9 2.16 1.62 1.42 2.42 3.57 2.42 6.45V39h-5.25v-2.41c-1.06 1.8-3.03 2.7-5.9 2.7a9.29 9.29 0 01-3.9-.76 5.43 5.43 0 01-3.35-5.11c0-1.8.68-3.22 2.02-4.25 1.37-1.03 3.47-1.55 6.3-1.55h4.47c0-1.22-.38-2.16-1.12-2.8-.75-.68-1.86-1.01-3.35-1.01a9.62 9.62 0 00-5.58 1.8l-2.01-3.93a12.19 12.19 0 013.77-1.72c1.5-.41 3.02-.62 4.58-.62zm-.43 16.17a5 5 0 002.55-.65 3.73 3.73 0 001.59-1.98V30.9h-3.86c-2.3 0-3.45.76-3.45 2.27 0 .72.27 1.3.82 1.73.58.4 1.36.6 2.35.6zm33.7-15.88l-8.74 20.56c-.89 2.23-2 3.8-3.31 4.71a7.99 7.99 0 01-4.72 1.37c-1 0-2-.15-2.99-.47a6.6 6.6 0 01-2.41-1.3l2.05-3.99a4.88 4.88 0 003.17 1.23c.77 0 1.4-.2 1.87-.58.48-.36.91-.97 1.3-1.84l.07-.18-8.39-19.5h5.8l5.43 13.13 5.48-13.14h5.4z"/><path fill="#fff" fill-opacity=".4" d="M126.49 75.43c-2.57 0-4.9-.55-6.99-1.65a12.83 12.83 0 01-4.9-4.65 13 13 0 01-1.76-6.73 12.48 12.48 0 016.66-11.34 14.53 14.53 0 017.02-1.7c2.19 0 4.15.4 5.9 1.16 1.78.77 3.27 1.87 4.47 3.31l-3.74 3.46a8.05 8.05 0 00-6.34-2.95 8.3 8.3 0 00-4.18 1.04 7.3 7.3 0 00-2.88 2.84 8.53 8.53 0 00-1 4.18c0 1.56.33 2.95 1 4.18a7.55 7.55 0 002.88 2.88c1.23.67 2.62 1 4.18 1 2.52 0 4.63-1 6.34-2.98l3.74 3.45a11.67 11.67 0 01-4.46 3.35 14.82 14.82 0 01-5.94 1.15zm21.61-20.09c3 0 5.3.72 6.91 2.16 1.61 1.42 2.42 3.57 2.42 6.45V75h-5.26v-2.41c-1.05 1.8-3.02 2.7-5.9 2.7a9.29 9.29 0 01-3.9-.76 5.43 5.43 0 01-3.35-5.11c.01-1.8.68-3.22 2.03-4.25 1.36-1.03 3.46-1.55 6.3-1.55h4.46c0-1.22-.37-2.16-1.12-2.8-.74-.68-1.85-1.01-3.34-1.01a9.62 9.62 0 00-5.58 1.8l-2.02-3.93a12.19 12.19 0 013.78-1.72c1.49-.41 3.01-.62 4.57-.62zm-.43 16.17a5 5 0 002.56-.65 3.73 3.73 0 001.58-1.98V66.9h-3.85c-2.3 0-3.46.76-3.46 2.27 0 .72.28 1.3.83 1.73.58.4 1.36.6 2.34.6zm21.36 3.78c-1.61 0-3.18-.2-4.72-.58-1.54-.4-2.76-.91-3.67-1.51l1.87-4.03c.86.55 1.9 1 3.13 1.37 1.23.33 2.43.5 3.6.5 2.38 0 3.57-.59 3.57-1.76 0-.56-.33-.95-.98-1.2a14.4 14.4 0 00-2.98-.6c-1.59-.24-2.9-.52-3.93-.83a6.21 6.21 0 01-2.7-1.66c-.74-.79-1.11-1.92-1.11-3.38 0-1.23.34-2.3 1.04-3.24a6.9 6.9 0 013.1-2.23c1.36-.53 2.97-.8 4.82-.8 1.37 0 2.72.16 4.07.47 1.37.29 2.5.7 3.38 1.23l-1.87 4a11.18 11.18 0 00-5.58-1.45c-1.2 0-2.1.17-2.7.5-.6.34-.9.77-.9 1.3 0 .6.32 1.02.97 1.26.65.24 1.68.47 3.1.69 1.58.26 2.88.55 3.89.86 1 .29 1.88.83 2.62 1.62.75.8 1.12 1.9 1.12 3.31 0 1.2-.36 2.27-1.08 3.2a7 7 0 01-3.17 2.2c-1.37.5-3 .76-4.9.76zm12.6-19.66h5.62V75h-5.62V55.63zm2.81-2.7c-1.03 0-1.87-.3-2.52-.9a2.92 2.92 0 01-.97-2.23c0-.89.33-1.63.97-2.23.65-.6 1.5-.9 2.52-.9 1.03 0 1.88.29 2.52.86.65.58.97 1.3.97 2.16 0 .94-.32 1.72-.97 2.34-.65.6-1.49.9-2.52.9zm19.8 2.41c2.4 0 4.33.72 5.8 2.16 1.48 1.44 2.22 3.58 2.22 6.41V75h-5.61V64.78c0-1.54-.34-2.68-1.01-3.42-.67-.77-1.64-1.16-2.92-1.16-1.41 0-2.54.45-3.38 1.34-.84.86-1.26 2.16-1.26 3.88V75h-5.62V55.63h5.37v2.27a7.27 7.27 0 012.77-1.87 9.43 9.43 0 013.64-.69zm22.54 19.95c-2.04 0-3.88-.42-5.5-1.26a9.66 9.66 0 01-5.16-8.71c0-1.92.46-3.64 1.37-5.15a9.4 9.4 0 013.78-3.53c1.63-.86 3.47-1.3 5.51-1.3 2.04 0 3.87.44 5.47 1.3a9.4 9.4 0 013.78 3.53 9.77 9.77 0 011.37 5.15 9.66 9.66 0 01-5.15 8.71c-1.6.84-3.43 1.26-5.47 1.26zm0-4.61c1.44 0 2.62-.48 3.53-1.44.94-.98 1.4-2.3 1.4-3.92 0-1.64-.47-2.93-1.4-3.9a4.6 4.6 0 00-3.53-1.47 4.7 4.7 0 00-3.56 1.48 5.33 5.33 0 00-1.4 3.89c0 1.63.46 2.94 1.4 3.92a4.77 4.77 0 003.56 1.44z"/><circle cx="42" cy="42" r="42" fill="#090222"/><rect width="11.78" height="4.42" x="36.61" y="62.58" fill="url(#paint0_linear)" rx="2.21"/><path fill="url(#paint1_linear)" fill-rule="evenodd" d="M47.48 39.53c1.4.97 4.06 3.83-.04 10.28 0 0-1.97-.93-3.15-3.6-.5.58-1.1 1.13-1.78 1.65l-.01-.01a14.49 14.49 0 01-1.73-1.73c-1.17 2.73-3.19 3.69-3.19 3.69-4.08-6.43-1.45-9.3-.04-10.27.23-.16.42-.27.55-.33-.01-.4 0-.8.02-1.2.33-5.8 4.4-10.76 4.4-10.76s3.89 5.1 4.36 10.78c.03.39.05.78.05 1.17.12.06.32.17.56.33zm5.9-4.7a13.25 13.25 0 10-21.75 0A13.25 13.25 0 1042.5 47.86a13.25 13.25 0 1010.87-13.05z" clip-rule="evenodd"/><defs><linearGradient id="paint0_linear" x1="48.39" x2="36.61" y1="64.79" y2="64.79" gradientUnits="userSpaceOnUse"><stop stop-color="#FFEB3B"/><stop offset="1" stop-color="#FFC107"/></linearGradient><linearGradient id="paint1_linear" x1="69" x2="16" y1="37.56" y2="37.56" gradientUnits="userSpaceOnUse"><stop stop-color="#FFEB3B"/><stop offset="1" stop-color="#FFC107"/></linearGradient></defs></svg>