<svg xmlns="http://www.w3.org/2000/svg" fill="none" viewBox="0 0 771 492"><defs/><path fill="url(#paint0_radial)" d="M222.35 68.74c0-5.5.8-10.36 2.4-14.59a35.08 35.08 0 018.07-11.9c3.71-3.78 8.83-7.68 15.36-11.71a21.26 21.26 0 004.03-3.08 4.5 4.5 0 001.25-3.16c0-2.63-1.89-3.94-5.67-3.94-2.81 0-6.04.74-9.7 2.2a42.49 42.49 0 00-9.88 5.58l-5.66-20.45a73.9 73.9 0 0114.1-5.19A59.78 59.78 0 01252.7.3c8.83 0 15.68 1.95 20.55 5.85 4.86 3.9 7.3 9.44 7.3 16.61 0 3.84-.87 7.23-2.6 10.18a26.25 26.25 0 01-6.14 7.3 108.7 108.7 0 01-9.32 6.8c-4.29 2.82-7.45 5.26-9.5 7.3a9.48 9.48 0 00-2.98 6.92h11.62v-5.48h19.68V77h-58.95v-8.26zm96.33 9.6c-10.81 0-19.17-3.07-25.05-9.21-5.83-6.15-8.74-15.97-8.74-29.47 0-13.5 2.91-23.33 8.74-29.48C299.5 4.04 307.87.97 318.68.97c10.82 0 19.14 3.07 24.96 9.21 5.9 6.15 8.84 15.97 8.84 29.48 0 12.48-2.73 22.04-8.17 28.7-5.37 6.66-13.92 9.98-25.63 9.98zm0-17.08c4.36 0 6.53-2.37 6.53-7.1v-29c0-4.74-2.17-7.1-6.53-7.1-4.35 0-6.53 2.36-6.53 7.1v29c0 4.73 2.18 7.1 6.53 7.1zM389 78.34c-10.81 0-19.16-3.07-25.05-9.21-5.82-6.15-8.74-15.97-8.74-29.47 0-13.5 2.92-23.33 8.74-29.48C369.83 4.04 378.18.97 389 .97c10.81 0 19.13 3.07 24.95 9.21 5.9 6.15 8.84 15.97 8.84 29.48 0 12.48-2.72 22.04-8.16 28.7-5.38 6.66-13.92 9.98-25.63 9.98zm0-17.08c4.36 0 6.53-2.37 6.53-7.1v-29c0-4.74-2.17-7.1-6.52-7.1-4.36 0-6.53 2.36-6.53 7.1v29c0 4.73 2.17 7.1 6.52 7.1zm70.32 17.08c-10.82 0-19.17-3.07-25.06-9.21-5.82-6.15-8.73-15.97-8.73-29.47 0-13.5 2.9-23.33 8.73-29.48C440.14 4.04 448.5.97 459.31.97c10.81 0 19.13 3.07 24.96 9.21 5.89 6.15 8.83 15.97 8.83 29.48 0 12.48-2.72 22.04-8.16 28.7-5.38 6.66-13.92 9.98-25.63 9.98zm0-17.08c4.35 0 6.53-2.37 6.53-7.1v-29c0-4.74-2.18-7.1-6.53-7.1s-6.53 2.36-6.53 7.1v29c0 4.73 2.18 7.1 6.53 7.1zm54.85 6.72V52.14h-15.84V36.1h15.84V20.26h16.04V36.1h15.74v16.04H530.2v15.84h-16.04zM75.48 209.34c-9.15 0-16.29-2.36-21.4-7.1-5.13-4.8-7.69-11.78-7.69-20.93s2.56-16.1 7.68-20.83c5.12-4.8 12.22-7.2 21.31-7.2 4.42 0 8.64.6 12.67 1.82 4.04 1.22 7.17 2.6 9.41 4.13v19.01h-16.5v-1.73c0-2.11-.46-3.65-1.35-4.6-.9-1.03-2.3-1.54-4.23-1.54-3.7 0-5.57 2.05-5.57 6.14v8.26c0 4.99 2.85 7.49 8.55 7.49 5.31 0 11.49-.58 18.53-1.73v15.07c-2.18.96-5.25 1.82-9.22 2.6-3.9.76-7.97 1.14-12.2 1.14zm81.17-17.08V208H131.3v-6.53a19.8 19.8 0 01-5.96 5.47c-2.5 1.6-5.56 2.4-9.21 2.4-4.8 0-8.58-1.28-11.33-3.84-2.75-2.56-4.13-6.17-4.13-10.84 0-12.1 10.27-18.3 30.82-18.63-.2-2.17-1.03-3.65-2.5-4.41-1.47-.84-3.97-1.25-7.49-1.25-2.88 0-5.98.32-9.3.96a51.54 51.54 0 00-9.03 2.4v-17.67a100.33 100.33 0 0122.65-2.78c9.54 0 16.36 1.73 20.45 5.18 4.1 3.46 6.15 8.8 6.15 16.04v17.76h4.22zm-25.34-6.72c-2.88 0-5.13.38-6.73 1.15a3.97 3.97 0 00-2.3 3.84c0 1.09.32 1.98.96 2.69.7.64 1.67.96 2.88.96a4.3 4.3 0 003.84-2.12c.9-1.4 1.34-3.39 1.34-5.95v-.57zm51.76 23.8a71.61 71.61 0 01-23.33-3.84v-14.2h15.56v.96c0 3.07 1.95 4.6 5.85 4.6 3.46 0 5.19-1.18 5.19-3.55 0-1.28-.52-2.24-1.54-2.88-.96-.64-2.69-1.18-5.18-1.63l-4.8-.86c-10.05-1.8-15.08-7.5-15.08-17.1 0-5.56 2.12-9.88 6.34-12.95 4.22-3.07 9.92-4.61 17.09-4.61 8 0 14.75 1.34 20.25 4.03v13.35h-14.59v-.96c0-1.28-.45-2.24-1.34-2.88-.83-.7-2.08-1.06-3.75-1.06-3.2 0-4.8 1.02-4.8 3.07 0 1.09.45 1.92 1.35 2.5.9.57 2.53 1.12 4.9 1.63l5.47 1.06c5.7 1.08 9.76 3.1 12.19 6.04 2.43 2.95 3.65 6.72 3.65 11.33 0 5.83-2.05 10.27-6.15 13.35-4.03 3.07-9.79 4.6-17.28 4.6zm31.06-60v-16.03h19.59v16.03h-19.59zm-4.6 58.66v-15.74h4.22v-21.9h-4.22v-15.74h26.3v37.64h4.22V208h-30.53zm96.93-15.74V208h-30.34v-15.74h4.03V176.5c0-2.11-.45-3.65-1.34-4.6-.9-1.03-2.24-1.54-4.03-1.54-3.84 0-5.76 2.05-5.76 6.14v15.75h4.03V208H242.7v-15.74h4.23v-21.9h-4.23v-15.74h26.3v7.5c4.61-5.9 10.37-8.84 17.29-8.84 5.3 0 9.28 1.66 11.9 5 2.69 3.32 4.03 7.9 4.03 13.72v20.26h4.23zm31.7 17.08c-9.08 0-16.19-2.36-21.3-7.1-5.13-4.8-7.69-11.78-7.69-20.93s2.56-16.1 7.68-20.83c5.12-4.8 12.23-7.2 21.31-7.2 9.22 0 16.36 2.43 21.41 7.3 5.06 4.8 7.59 11.7 7.59 20.73 0 9.15-2.56 16.13-7.68 20.93-5.12 4.74-12.23 7.1-21.32 7.1zm0-17.08c1.86 0 3.24-.48 4.13-1.44.96-1.03 1.44-2.6 1.44-4.7v-9.6c0-2.12-.48-3.66-1.44-4.62-.9-1.02-2.27-1.53-4.13-1.53-1.85 0-3.26.51-4.22 1.53-.9.96-1.34 2.5-1.34 4.61v9.6c0 2.11.44 3.68 1.34 4.7.96.97 2.37 1.45 4.22 1.45zm88.96 38.4c-4.6 0-9.02-.32-13.25-.96a54.14 54.14 0 01-9.7-2.21v-15.75a104.49 104.49 0 0018.25 1.83c3.65 0 6.27-.58 7.87-1.73 1.66-1.09 2.5-3.17 2.5-6.24v-4.13a23.82 23.82 0 01-6.24 5.47c-2.5 1.6-5.38 2.4-8.64 2.4-6.53 0-11.46-2.43-14.79-7.3-3.26-4.86-4.9-11.77-4.9-20.73s1.64-15.87 4.9-20.73c3.33-4.87 8.26-7.3 14.79-7.3 3.26 0 6.14.8 8.64 2.4a23.82 23.82 0 016.24 5.47v-6.53h26.3v15.75h-4.22v33.79c0 9.28-2.3 16-6.92 20.16-4.6 4.22-11.55 6.34-20.83 6.34zm.1-38.4c1.85 0 3.23-.48 4.13-1.44.96-1.03 1.44-2.6 1.44-4.7v-9.6c0-2.12-.48-3.66-1.44-4.62-.9-1.02-2.28-1.53-4.13-1.53-1.86 0-3.27.51-4.23 1.53-.9.96-1.34 2.5-1.34 4.61v9.6c0 2.11.45 3.68 1.34 4.7.96.97 2.37 1.45 4.23 1.45zm90.55 0V208h-25.34v-6.53a19.8 19.8 0 01-5.95 5.47c-2.5 1.6-5.57 2.4-9.22 2.4-4.8 0-8.57-1.28-11.33-3.84-2.75-2.56-4.12-6.17-4.12-10.84 0-12.1 10.27-18.3 30.81-18.63-.19-2.17-1.02-3.65-2.5-4.41-1.47-.84-3.96-1.25-7.48-1.25-2.88 0-5.99.32-9.31.96a51.54 51.54 0 00-9.03 2.4v-17.67a100.33 100.33 0 0122.66-2.78c9.53 0 16.35 1.73 20.45 5.18 4.1 3.46 6.14 8.8 6.14 16.04v17.76h4.22zm-25.34-6.72c-2.88 0-5.12.38-6.72 1.15a3.97 3.97 0 00-2.3 3.84c0 1.09.32 1.98.96 2.69.7.64 1.66.96 2.88.96a4.3 4.3 0 003.84-2.12c.9-1.4 1.34-3.39 1.34-5.95v-.57zm125.4 6.72V208h-30.34v-15.74h4.03V176.5c0-2.11-.44-3.65-1.34-4.6-.9-1.03-2.24-1.54-4.03-1.54-3.84 0-5.76 2.05-5.76 6.14v15.75h4.03V208h-30.14v-15.74h4.03V176.5c0-2.11-.45-3.65-1.34-4.6-.9-1.03-2.25-1.54-4.04-1.54-3.84 0-5.76 2.05-5.76 6.14v15.75h4.04V208h-30.34v-15.74h4.22v-21.9h-4.22v-15.74h26.3v7.5c4.61-5.9 10.37-8.84 17.28-8.84 3.9 0 7.07.93 9.5 2.78 2.5 1.8 4.26 4.36 5.29 7.68a26.32 26.32 0 017.87-7.68c3-1.79 6.53-2.68 10.56-2.68 5.31 0 9.28 1.66 11.9 4.99 2.7 3.33 4.03 7.9 4.03 13.73v20.16h4.23zm31.68 17.08c-9.09 0-16.2-2.36-21.31-7.1-5.12-4.8-7.68-11.78-7.68-20.93s2.56-16.1 7.68-20.83c5.12-4.8 12.22-7.2 21.3-7.2 9.03 0 15.53 2.37 19.5 7.1 4.03 4.68 6.04 10.5 6.04 17.48v6.9h-31.1v.58c0 2.37.7 4.13 2.11 5.28 1.41 1.1 3.75 1.64 7.01 1.64 3.9 0 7.62-.3 11.14-.87 3.52-.57 6.59-1.31 9.21-2.2v15.35c-2.24 1.22-5.53 2.34-9.89 3.36a64.15 64.15 0 01-14.01 1.44zm5.57-35.13v-1.15c0-2.18-.48-3.75-1.44-4.7-.9-.97-2.28-1.45-4.13-1.45-1.86 0-3.27.51-4.23 1.54-.9.96-1.34 2.5-1.34 4.6v1.16h11.14zm46.15 35.13a71.61 71.61 0 01-23.33-3.84v-14.2h15.55v.96c0 3.07 1.95 4.6 5.86 4.6 3.45 0 5.18-1.18 5.18-3.55 0-1.28-.51-2.24-1.53-2.88-.96-.64-2.7-1.18-5.19-1.63l-4.8-.86c-10.05-1.8-15.07-7.5-15.07-17.1 0-5.56 2.11-9.88 6.34-12.95 4.22-3.07 9.92-4.61 17.08-4.61 8 0 14.76 1.34 20.26 4.03v13.35h-14.6v-.96c0-1.28-.44-2.24-1.34-2.88-.83-.7-2.08-1.06-3.74-1.06-3.2 0-4.8 1.02-4.8 3.07 0 1.09.45 1.92 1.34 2.5.9.57 2.53 1.12 4.9 1.63l5.47 1.06c5.7 1.08 9.76 3.1 12.2 6.04 2.43 2.95 3.64 6.72 3.64 11.33 0 5.83-2.05 10.27-6.14 13.35-4.03 3.07-9.8 4.6-17.28 4.6zM.74 323.26h4.23v-21.9H.74v-15.74h4.42c0-7.8 1.89-13.53 5.66-17.18 3.84-3.65 9.41-5.47 16.7-5.47 3.53 0 6.66.25 9.42.77 2.81.5 4.86 1.08 6.14 1.72v15.08c-3.4-.32-6.53-.48-9.4-.48-2.5 0-4.23.41-5.2 1.24-.95.84-1.43 2.28-1.43 4.32h7.49v15.75h-7.5v21.89h7.5V339H.74v-15.74zm77.84-38.98c1.28 0 2.5.13 3.65.38 1.15.26 2.1.58 2.88.96v18.34a21.84 21.84 0 00-8.45-1.63c-4.03 0-7.14 1.05-9.31 3.17-2.18 2.1-3.27 5.24-3.27 9.4v8.36h8.64V339H37.78v-15.74H42v-21.9h-4.22v-15.74h26.3v7.01a20.06 20.06 0 016.15-6.14c2.3-1.47 5.09-2.21 8.35-2.21zm38.24 56.06c-9.09 0-16.2-2.36-21.31-7.1-5.12-4.8-7.68-11.78-7.68-20.93s2.56-16.1 7.68-20.83c5.12-4.8 12.22-7.2 21.31-7.2 9.22 0 16.35 2.43 21.4 7.3 5.06 4.8 7.6 11.7 7.6 20.73 0 9.15-2.57 16.13-7.69 20.93-5.12 4.74-12.22 7.1-21.31 7.1zm0-17.08c1.86 0 3.23-.48 4.13-1.44.96-1.03 1.44-2.6 1.44-4.7v-9.6c0-2.12-.48-3.66-1.44-4.62-.9-1.02-2.27-1.53-4.13-1.53-1.86 0-3.26.51-4.22 1.53-.9.96-1.35 2.5-1.35 4.61v9.6c0 2.11.45 3.68 1.35 4.7.96.97 2.36 1.45 4.22 1.45zm129 0V339H215.5v-15.74h4.03V307.5c0-2.11-.44-3.65-1.34-4.6-.9-1.03-2.24-1.54-4.03-1.54-3.84 0-5.76 2.05-5.76 6.14v15.75h4.03V339h-30.14v-15.74h4.03V307.5c0-2.11-.45-3.65-1.34-4.6-.9-1.03-2.25-1.54-4.04-1.54-3.84 0-5.76 2.05-5.76 6.14v15.75h4.04V339h-30.34v-15.74h4.22v-21.9h-4.22v-15.74h26.3v7.5c4.61-5.9 10.37-8.84 17.28-8.84 3.9 0 7.08.93 9.5 2.78 2.5 1.8 4.26 4.36 5.29 7.68a26.32 26.32 0 017.87-7.68c3-1.79 6.53-2.68 10.56-2.68 5.31 0 9.28 1.66 11.9 4.99 2.7 3.33 4.03 7.9 4.03 13.73v20.16h4.23zm55.57 17.08c-6.78 0-11.9-1.63-15.36-4.9-3.39-3.32-5.08-8.89-5.08-16.7v-17.37h-4.23v-15.75c2.43 0 4.26-.6 5.47-1.82 1.22-1.28 1.83-3 1.83-5.18v-4.32h20.35v11.32h12.96v15.75h-12.96v15.74c0 2.11.45 3.68 1.34 4.7.96.97 2.37 1.45 4.23 1.45 2.43 0 5.08-.3 7.96-.87v15.07c-1.79.7-4.22 1.35-7.3 1.92-3 .64-6.07.96-9.2.96zm48.21 0c-9.09 0-16.19-2.36-21.31-7.1-5.12-4.8-7.68-11.78-7.68-20.93s2.56-16.1 7.68-20.83c5.12-4.8 12.22-7.2 21.31-7.2 9.22 0 16.35 2.43 21.41 7.3 5.06 4.8 7.58 11.7 7.58 20.73 0 9.15-2.56 16.13-7.68 20.93-5.12 4.74-12.22 7.1-21.3 7.1zm0-17.08c1.86 0 3.23-.48 4.13-1.44.96-1.03 1.44-2.6 1.44-4.7v-9.6c0-2.12-.48-3.66-1.44-4.62-.9-1.02-2.27-1.53-4.13-1.53-1.85 0-3.26.51-4.22 1.53-.9.96-1.35 2.5-1.35 4.61v9.6c0 2.11.45 3.68 1.35 4.7.96.97 2.37 1.45 4.22 1.45zm31.67 21.3h4.22v-43.2h-4.22v-15.74h26.3v6.53a24.4 24.4 0 016.14-5.47c2.56-1.6 5.48-2.4 8.74-2.4 6.53 0 11.42 2.43 14.69 7.3 3.33 4.86 4.99 11.77 4.99 20.73s-1.66 15.87-5 20.74c-3.26 4.86-8.15 7.3-14.68 7.3-3.26 0-6.18-.8-8.74-2.4a24.4 24.4 0 01-6.14-5.48v12.1h6.62v15.74h-32.92v-15.74zm31.87-21.3c1.85 0 3.23-.48 4.13-1.44.96-1.03 1.44-2.6 1.44-4.7v-9.6c0-2.12-.48-3.66-1.44-4.62-.9-1.02-2.28-1.53-4.13-1.53-1.86 0-3.27.51-4.23 1.53-.9.96-1.34 2.5-1.34 4.61v9.6c0 2.11.45 3.68 1.34 4.7.96.97 2.37 1.45 4.23 1.45zm33.23-3.36v-15.75h30.82v15.75h-30.82zm99.52 3.36V339h-30.33v-15.74h4.03V307.5c0-2.11-.45-3.65-1.34-4.6-.9-1.03-2.24-1.54-4.04-1.54-3.84 0-5.76 2.05-5.76 6.14v15.75h4.04V339h-30.34v-15.74h4.22v-21.9h-4.22v-15.74h26.3v7.5c4.61-5.9 10.37-8.84 17.28-8.84 5.32 0 9.28 1.66 11.9 5 2.7 3.32 4.04 7.9 4.04 13.72v20.26h4.22zm31.71 17.08c-9.09 0-16.19-2.36-21.31-7.1-5.12-4.8-7.68-11.78-7.68-20.93s2.56-16.1 7.68-20.83c5.12-4.8 12.22-7.2 21.31-7.2 9.22 0 16.35 2.43 21.41 7.3 5.06 4.8 7.58 11.7 7.58 20.73 0 9.15-2.56 16.13-7.68 20.93-5.12 4.74-12.22 7.1-21.3 7.1zm0-17.08c1.86 0 3.23-.48 4.13-1.44.96-1.03 1.44-2.6 1.44-4.7v-9.6c0-2.12-.48-3.66-1.44-4.62-.9-1.02-2.27-1.53-4.13-1.53-1.85 0-3.26.51-4.22 1.53-.9.96-1.35 2.5-1.35 4.61v9.6c0 2.11.45 3.68 1.35 4.7.96.97 2.37 1.45 4.22 1.45zm55.76 17.08c-6.78 0-11.9-1.63-15.36-4.9-3.39-3.32-5.09-8.89-5.09-16.7v-17.37h-4.22v-15.75c2.43 0 4.26-.6 5.47-1.82 1.22-1.28 1.83-3 1.83-5.18v-4.32h20.35v11.32h12.96v15.75h-12.96v15.74c0 2.11.45 3.68 1.34 4.7.96.97 2.37 1.45 4.23 1.45 2.43 0 5.08-.3 7.96-.87v15.07c-1.79.7-4.22 1.35-7.3 1.92-3 .64-6.07.96-9.2.96zm48.3 0c-9.15 0-16.28-2.36-21.4-7.1-5.12-4.8-7.68-11.78-7.68-20.93s2.56-16.1 7.68-20.83c5.12-4.8 12.22-7.2 21.31-7.2 4.42 0 8.64.6 12.67 1.82 4.03 1.22 7.17 2.6 9.41 4.13v19.01h-16.51v-1.73c0-2.11-.45-3.65-1.35-4.6-.9-1.03-2.3-1.54-4.22-1.54-3.71 0-5.57 2.05-5.57 6.14v8.26c0 4.99 2.85 7.49 8.55 7.49 5.3 0 11.48-.58 18.52-1.73v15.07c-2.17.96-5.24 1.82-9.21 2.6-3.9.76-7.97 1.14-12.2 1.14zm88.95-17.08V339h-30.33v-15.74h4.03V307.5c0-2.11-.45-3.65-1.34-4.6-.9-1.03-2.25-1.54-4.04-1.54-3.84 0-5.76 2.05-5.76 6.14v15.75h4.04V339h-30.34v-15.74h4.22v-43.2h-4.22V264.3h26.3v28.8a25.3 25.3 0 017.68-6.62 20.05 20.05 0 019.6-2.21c5.31 0 9.28 1.66 11.9 5 2.7 3.32 4.04 7.9 4.04 13.72v20.26h4.22zm-629.16 152.3h4.23v-43.2h-4.23v-15.74h26.3v6.53a24.4 24.4 0 016.15-5.47c2.56-1.6 5.47-2.4 8.74-2.4 6.53 0 11.42 2.43 14.69 7.3 3.32 4.86 4.99 11.77 4.99 20.73s-1.67 15.87-5 20.74c-3.26 4.86-8.16 7.3-14.68 7.3-3.27 0-6.18-.8-8.74-2.4a24.4 24.4 0 01-6.14-5.48v12.1h6.62v15.74h-32.93v-15.74zm31.88-21.3c1.85 0 3.23-.48 4.12-1.44.96-1.03 1.44-2.6 1.44-4.7v-9.6c0-2.12-.48-3.66-1.44-4.62-.9-1.02-2.27-1.53-4.13-1.53-1.85 0-3.26.51-4.22 1.53-.9.96-1.34 2.5-1.34 4.61v9.6c0 2.11.45 3.68 1.34 4.7.96.97 2.37 1.45 4.22 1.45zm72.69-38.98c1.28 0 2.5.13 3.64.38 1.16.26 2.12.58 2.88.96v18.34a21.84 21.84 0 00-8.44-1.63c-4.03 0-7.14 1.05-9.31 3.17-2.18 2.1-3.27 5.24-3.27 9.4v8.36h8.64V470h-34.94v-15.74h4.22v-21.9h-4.22v-15.74h26.3v7.01a20.06 20.06 0 016.14-6.14c2.3-1.47 5.1-2.21 8.36-2.21zm38.24 56.06c-9.09 0-16.2-2.36-21.31-7.1-5.12-4.8-7.68-11.78-7.68-20.93s2.56-16.1 7.68-20.83c5.12-4.8 12.22-7.2 21.3-7.2 9.22 0 16.36 2.43 21.42 7.3 5.05 4.8 7.58 11.7 7.58 20.73 0 9.15-2.56 16.13-7.68 20.93-5.12 4.74-12.22 7.1-21.31 7.1zm0-17.08c1.85 0 3.23-.48 4.13-1.44.96-1.03 1.44-2.6 1.44-4.7v-9.6c0-2.12-.48-3.66-1.44-4.62-.9-1.02-2.28-1.53-4.13-1.53-1.86 0-3.27.51-4.23 1.53-.9.96-1.34 2.5-1.34 4.61v9.6c0 2.11.45 3.68 1.34 4.7.96.97 2.37 1.45 4.23 1.45zm47.4 15.74l-12.09-37.63h-4.03v-15.75h29.66v15.75h-4.03l5.09 19h.96l5.09-19h-4.04v-15.75h27.84v15.75h-4.03L360.28 470h-28.61zm51.78-58.66v-16.03h19.59v16.03h-19.58zm-4.6 58.66v-15.74h4.22v-21.9h-4.22v-15.74h26.3v37.64h4.23V470h-30.53zm52.1 1.34c-6.53 0-11.46-2.43-14.79-7.3-3.26-4.86-4.9-11.77-4.9-20.73s1.64-15.87 4.9-20.73c3.33-4.87 8.26-7.3 14.79-7.3 3.26 0 6.14.8 8.64 2.4a23.82 23.82 0 016.24 5.47v-12.1h-5.67v-15.74h27.75v58.95h4.22V470h-26.3v-6.53a23.82 23.82 0 01-6.24 5.47c-2.5 1.6-5.38 2.4-8.64 2.4zm9.3-17.08c1.87 0 3.24-.48 4.14-1.44.96-1.03 1.44-2.6 1.44-4.7v-9.6c0-2.12-.48-3.66-1.44-4.62-.9-1.02-2.27-1.53-4.13-1.53-1.86 0-3.26.51-4.23 1.53-.9.96-1.34 2.5-1.34 4.61v9.6c0 2.11.45 3.68 1.34 4.7.97.97 2.37 1.45 4.23 1.45zm63.58 17.08c-9.09 0-16.2-2.36-21.31-7.1-5.12-4.8-7.68-11.78-7.68-20.93s2.56-16.1 7.68-20.83c5.12-4.8 12.22-7.2 21.31-7.2 9.02 0 15.52 2.37 19.49 7.1 4.03 4.68 6.05 10.5 6.05 17.48v6.9h-31.1v.58c0 2.37.7 4.13 2.1 5.28 1.41 1.1 3.75 1.64 7.01 1.64 3.9 0 7.62-.3 11.14-.87 3.52-.57 6.59-1.31 9.21-2.2v15.35c-2.24 1.22-5.53 2.34-9.88 3.36a64.15 64.15 0 01-14.02 1.44zm5.57-35.13v-1.15c0-2.18-.48-3.75-1.44-4.7-.9-.97-2.27-1.45-4.13-1.45-1.86 0-3.26.51-4.22 1.54-.9.96-1.35 2.5-1.35 4.6v1.16h11.14zm63.81-20.93c1.28 0 2.5.13 3.65.38 1.15.26 2.11.58 2.88.96v18.34a21.84 21.84 0 00-8.45-1.63c-4.03 0-7.13 1.05-9.3 3.17-2.18 2.1-3.27 5.24-3.27 9.4v8.36h8.64V470H532.4v-15.74h4.23v-21.9h-4.23v-15.74h26.3v7.01a20.06 20.06 0 016.15-6.14c2.3-1.47 5.09-2.21 8.35-2.21zm32.96 56.06a71.61 71.61 0 01-23.32-3.84v-14.2h15.55v.96c0 3.07 1.95 4.6 5.86 4.6 3.45 0 5.18-1.18 5.18-3.55 0-1.28-.51-2.24-1.54-2.88-.96-.64-2.68-1.18-5.18-1.63l-4.8-.86c-10.05-1.8-15.07-7.5-15.07-17.1 0-5.56 2.1-9.88 6.33-12.95 4.23-3.07 9.92-4.61 17.1-4.61 8 0 14.74 1.34 20.25 4.03v13.35h-14.6v-.96c0-1.28-.44-2.24-1.34-2.88-.83-.7-2.08-1.06-3.74-1.06-3.2 0-4.8 1.02-4.8 3.07 0 1.09.45 1.92 1.34 2.5.9.57 2.53 1.12 4.9 1.63l5.47 1.06c5.7 1.08 9.76 3.1 12.2 6.04 2.42 2.95 3.64 6.72 3.64 11.33 0 5.83-2.05 10.27-6.14 13.35-4.04 3.07-9.8 4.6-17.29 4.6z"/><defs><radialGradient id="paint0_radial" cx="0" cy="0" r="1" gradientTransform="matrix(425.057 0 0 2777 385.5 240)" gradientUnits="userSpaceOnUse"><stop stop-color="#fff"/><stop offset="1" stop-color="#fff" stop-opacity="0"/></radialGradient></defs></svg>