<svg xmlns="http://www.w3.org/2000/svg" fill="none" viewBox="0 0 886 110"><defs/><path fill="url(#paint0_radial)" d="M29.1763 87.5399C21.4029 87.5399 15.5363 85.6699 11.5763 81.9299C7.68958 78.1166 5.74625 71.7366 5.74625 62.7899V42.8799H0.90625V24.8399C3.69292 24.8399 5.78292 24.1433 7.17625 22.7499C8.56958 21.2833 9.26625 19.3033 9.26625 16.8099V11.8599H32.5863V24.8399H47.4363V42.8799H32.5863V60.9199C32.5863 63.3399 33.0996 65.1366 34.1262 66.3099C35.2262 67.4099 36.8396 67.9599 38.9662 67.9599C41.7529 67.9599 44.7962 67.6299 48.0962 66.9699V84.2399C46.0429 85.0466 43.2563 85.7799 39.7363 86.4399C36.2896 87.1733 32.7696 87.5399 29.1763 87.5399Z"/><path fill="url(#paint1_radial)" d="M84.4152 87.5399C74.0018 87.5399 65.8618 84.8266 59.9952 79.3999C54.1285 73.8999 51.1952 65.9066 51.1952 55.4199C51.1952 44.9333 54.1285 36.9766 59.9952 31.5499C65.8618 26.0499 74.0018 23.2999 84.4152 23.2999C94.9752 23.2999 103.152 26.0866 108.945 31.6599C114.738 37.1599 117.635 45.0799 117.635 55.4199C117.635 65.9066 114.702 73.8999 108.835 79.3999C102.968 84.8266 94.8285 87.5399 84.4152 87.5399ZM84.4152 67.9599C86.5418 67.9599 88.1185 67.4099 89.1452 66.3099C90.2452 65.1366 90.7952 63.3399 90.7952 60.9199V49.9199C90.7952 47.4999 90.2452 45.7399 89.1452 44.6399C88.1185 43.4666 86.5418 42.8799 84.4152 42.8799C82.2885 42.8799 80.6752 43.4666 79.5752 44.6399C78.5485 45.7399 78.0352 47.4999 78.0352 49.9199V60.9199C78.0352 63.3399 78.5485 65.1366 79.5752 66.3099C80.6752 67.4099 82.2885 67.9599 84.4152 67.9599Z"/><path fill="url(#paint2_radial)" d="M154.336 67.9599H159.836V18.4599H154.336V0.419922H204.826C214.286 0.419922 221.509 2.36325 226.496 6.24992C231.482 10.1366 233.976 16.4433 233.976 25.1699C233.976 30.0833 232.986 34.3366 231.006 37.9299C229.026 41.5233 226.202 44.0166 222.536 45.4099L222.646 46.5099C229.686 47.6099 233.206 51.9366 233.206 59.4899V67.9599H238.376V85.9999H203.506V60.1499C203.506 57.2899 203.066 55.1266 202.186 53.6599C201.379 52.1933 200.059 51.2033 198.226 50.6899C196.466 50.1766 193.936 49.9199 190.636 49.9199V67.9599H197.896V85.9999H154.336V67.9599ZM196.576 36.4999C198.702 36.4999 200.279 35.9499 201.306 34.8499C202.406 33.6766 202.956 31.8799 202.956 29.4599V25.4999C202.956 23.0799 202.406 21.3199 201.306 20.2199C200.279 19.0466 198.702 18.4599 196.576 18.4599H190.636V36.4999H196.576Z"/><path fill="url(#paint3_radial)" d="M274.874 87.5399C264.461 87.5399 256.321 84.8266 250.454 79.3999C244.587 73.8999 241.654 65.9066 241.654 55.4199C241.654 44.9333 244.587 36.9766 250.454 31.5499C256.321 26.0499 264.461 23.2999 274.874 23.2999C285.434 23.2999 293.611 26.0866 299.404 31.6599C305.197 37.1599 308.094 45.0799 308.094 55.4199C308.094 65.9066 305.161 73.8999 299.294 79.3999C293.427 84.8266 285.287 87.5399 274.874 87.5399ZM274.874 67.9599C277.001 67.9599 278.577 67.4099 279.604 66.3099C280.704 65.1366 281.254 63.3399 281.254 60.9199V49.9199C281.254 47.4999 280.704 45.7399 279.604 44.6399C278.577 43.4666 277.001 42.8799 274.874 42.8799C272.747 42.8799 271.134 43.4666 270.034 44.6399C269.007 45.7399 268.494 47.4999 268.494 49.9199V60.9199C268.494 63.3399 269.007 65.1366 270.034 66.3099C271.134 67.4099 272.747 67.9599 274.874 67.9599Z"/><path fill="url(#paint4_radial)" d="M344.486 87.5399C333.999 87.5399 325.823 84.8266 319.956 79.3999C314.089 73.8999 311.156 65.9066 311.156 55.4199C311.156 44.9333 314.089 36.9766 319.956 31.5499C325.823 26.0499 333.963 23.2999 344.376 23.2999C349.436 23.2999 354.276 23.9966 358.896 25.3899C363.516 26.7833 367.109 28.3599 369.676 30.1199V51.8999H350.756V49.9199C350.756 47.4999 350.243 45.7399 349.216 44.6399C348.189 43.4666 346.576 42.8799 344.376 42.8799C340.123 42.8799 337.996 45.2266 337.996 49.9199V59.3799C337.996 65.0999 341.259 67.9599 347.786 67.9599C353.873 67.9599 360.949 67.2999 369.016 65.9799V83.2499C366.523 84.3499 363.003 85.3399 358.456 86.2199C353.983 87.0999 349.326 87.5399 344.486 87.5399Z"/><path fill="url(#paint5_radial)" d="M439.694 67.9599H444.424V85.9999H417.474L406.144 64.8799H403.504V85.9999H373.364V67.9599H378.204V18.4599H373.364V0.419922H403.504V45.0799H406.144L419.784 24.8399H442.994V42.8799H438.484L429.134 53.3299L439.694 67.9599Z"/><path fill="url(#paint6_radial)" d="M480.694 87.5399C470.281 87.5399 462.141 84.8266 456.274 79.3999C450.408 73.8999 447.474 65.9066 447.474 55.4199C447.474 44.9333 450.408 36.9766 456.274 31.5499C462.141 26.0499 470.281 23.2999 480.694 23.2999C491.034 23.2999 498.478 26.0133 503.024 31.4399C507.644 36.7933 509.954 43.4666 509.954 51.4599V59.3799H474.314V60.0399C474.314 62.7533 475.121 64.7699 476.734 66.0899C478.348 67.3366 481.024 67.9599 484.764 67.9599C489.238 67.9599 493.491 67.6299 497.524 66.9699C501.558 66.3099 505.078 65.4666 508.084 64.4399V82.0399C505.518 83.4333 501.741 84.7166 496.754 85.8899C491.841 86.9899 486.488 87.5399 480.694 87.5399ZM487.074 47.2799V45.9599C487.074 43.4666 486.524 41.6699 485.424 40.5699C484.398 39.4699 482.821 38.9199 480.694 38.9199C478.568 38.9199 476.954 39.5066 475.854 40.6799C474.828 41.7799 474.314 43.5399 474.314 45.9599V47.2799H487.074Z"/><path fill="url(#paint7_radial)" d="M540.397 87.5399C532.624 87.5399 526.757 85.6699 522.797 81.9299C518.91 78.1166 516.967 71.7366 516.967 62.7899V42.8799H512.127V24.8399C514.914 24.8399 517.004 24.1433 518.397 22.7499C519.79 21.2833 520.487 19.3033 520.487 16.8099V11.8599H543.807V24.8399H558.657V42.8799H543.807V60.9199C543.807 63.3399 544.32 65.1366 545.347 66.3099C546.447 67.4099 548.06 67.9599 550.187 67.9599C552.974 67.9599 556.017 67.6299 559.317 66.9699V84.2399C557.264 85.0466 554.477 85.7799 550.957 86.4399C547.51 87.1733 543.99 87.5399 540.397 87.5399Z"/><path fill="url(#paint8_radial)" d="M596.054 67.9599H601.554V18.4599H596.054V0.419922H644.344C653.804 0.419922 661.028 2.47326 666.014 6.57992C671.001 10.6133 673.494 17.1766 673.494 26.2699C673.494 35.3633 671.001 41.9633 666.014 46.0699C661.028 50.1033 653.804 52.1199 644.344 52.1199H632.354V67.9599H642.914V85.9999H596.054V67.9599ZM636.094 36.4999C640.348 36.4999 642.474 34.1533 642.474 29.4599V25.4999C642.474 23.0799 641.924 21.3199 640.824 20.2199C639.798 19.0466 638.221 18.4599 636.094 18.4599H632.354V36.4999H636.094Z"/><path fill="url(#paint9_radial)" d="M677.045 86.1099V67.9599H681.885V18.4599H677.045V0.419922H707.185V67.9599H712.025V86.1099H677.045Z"/><path fill="url(#paint10_radial)" d="M779.632 67.9599V85.9999H750.592V78.5199C748.979 80.8666 746.706 82.9566 743.772 84.7899C740.912 86.6233 737.392 87.5399 733.212 87.5399C727.712 87.5399 723.386 86.0733 720.232 83.1399C717.079 80.2066 715.502 76.0633 715.502 70.7099C715.502 56.8499 727.272 49.7366 750.812 49.3699C750.592 46.8766 749.639 45.1899 747.952 44.3099C746.266 43.3566 743.406 42.8799 739.372 42.8799C736.072 42.8799 732.516 43.2466 728.702 43.9799C724.962 44.6399 721.516 45.5566 718.362 46.7299V26.4899C722.249 25.5366 726.466 24.7666 731.012 24.1799C735.559 23.5933 739.996 23.2999 744.322 23.2999C755.249 23.2999 763.059 25.2799 767.752 29.2399C772.446 33.1999 774.792 39.3233 774.792 47.6099V67.9599H779.632ZM750.592 60.2599C747.292 60.2599 744.726 60.6999 742.892 61.5799C741.132 62.4599 740.252 63.9266 740.252 65.9799C740.252 67.2266 740.619 68.2533 741.352 69.0599C742.159 69.7933 743.259 70.1599 744.652 70.1599C746.559 70.1599 748.026 69.3533 749.052 67.7399C750.079 66.1266 750.592 63.8533 750.592 60.9199V60.2599Z"/><path fill="url(#paint11_radial)" d="M849.398 24.8399V42.8799H845.218L830.808 81.0499C827.215 90.6566 823.108 97.8433 818.488 102.61C813.868 107.45 807.781 109.87 800.228 109.87C797.148 109.87 794.031 109.54 790.878 108.88C787.725 108.293 784.865 107.45 782.298 106.35V86.4399H797.478V87.5399C797.478 89.3733 798.431 90.2899 800.338 90.2899C802.025 90.2899 803.308 89.4833 804.188 87.8699L786.808 42.8799H782.628V24.8399H815.298V42.8799H811.558L817.278 60.0399L822.558 42.8799H818.818V24.8399H849.398Z"/><path fill="url(#paint12_radial)" d="M857.96 61.9099L852.9 5.91992V0.419922H885.79V5.91992L880.62 61.9099H857.96ZM856.86 85.9999V67.9599H881.72V85.9999H856.86Z"/><defs><radialGradient id="paint0_radial" cx="0" cy="0" r="1" gradientTransform="matrix(488.293 0 0 800.243 444 47.5)" gradientUnits="userSpaceOnUse"><stop stop-color="white"/><stop offset="1" stop-color="white" stop-opacity="0"/></radialGradient><radialGradient id="paint1_radial" cx="0" cy="0" r="1" gradientTransform="matrix(488.293 0 0 800.243 444 47.5)" gradientUnits="userSpaceOnUse"><stop stop-color="white"/><stop offset="1" stop-color="white" stop-opacity="0"/></radialGradient><radialGradient id="paint2_radial" cx="0" cy="0" r="1" gradientTransform="matrix(488.293 0 0 800.243 444 47.5)" gradientUnits="userSpaceOnUse"><stop stop-color="white"/><stop offset="1" stop-color="white" stop-opacity="0"/></radialGradient><radialGradient id="paint3_radial" cx="0" cy="0" r="1" gradientTransform="matrix(488.293 0 0 800.243 444 47.5)" gradientUnits="userSpaceOnUse"><stop stop-color="white"/><stop offset="1" stop-color="white" stop-opacity="0"/></radialGradient><radialGradient id="paint4_radial" cx="0" cy="0" r="1" gradientTransform="matrix(488.293 0 0 800.243 444 47.5)" gradientUnits="userSpaceOnUse"><stop stop-color="white"/><stop offset="1" stop-color="white" stop-opacity="0"/></radialGradient><radialGradient id="paint5_radial" cx="0" cy="0" r="1" gradientTransform="matrix(488.293 0 0 800.243 444 47.5)" gradientUnits="userSpaceOnUse"><stop stop-color="white"/><stop offset="1" stop-color="white" stop-opacity="0"/></radialGradient><radialGradient id="paint6_radial" cx="0" cy="0" r="1" gradientTransform="matrix(488.293 0 0 800.243 444 47.5)" gradientUnits="userSpaceOnUse"><stop stop-color="white"/><stop offset="1" stop-color="white" stop-opacity="0"/></radialGradient><radialGradient id="paint7_radial" cx="0" cy="0" r="1" gradientTransform="matrix(488.293 0 0 800.243 444 47.5)" gradientUnits="userSpaceOnUse"><stop stop-color="white"/><stop offset="1" stop-color="white" stop-opacity="0"/></radialGradient><radialGradient id="paint8_radial" cx="0" cy="0" r="1" gradientTransform="matrix(488.293 0 0 800.243 444 47.5)" gradientUnits="userSpaceOnUse"><stop stop-color="white"/><stop offset="1" stop-color="white" stop-opacity="0"/></radialGradient><radialGradient id="paint9_radial" cx="0" cy="0" r="1" gradientTransform="matrix(488.293 0 0 800.243 444 47.5)" gradientUnits="userSpaceOnUse"><stop stop-color="white"/><stop offset="1" stop-color="white" stop-opacity="0"/></radialGradient><radialGradient id="paint10_radial" cx="0" cy="0" r="1" gradientTransform="matrix(488.293 0 0 800.243 444 47.5)" gradientUnits="userSpaceOnUse"><stop stop-color="white"/><stop offset="1" stop-color="white" stop-opacity="0"/></radialGradient><radialGradient id="paint11_radial" cx="0" cy="0" r="1" gradientTransform="matrix(488.293 0 0 800.243 444 47.5)" gradientUnits="userSpaceOnUse"><stop stop-color="white"/><stop offset="1" stop-color="white" stop-opacity="0"/></radialGradient><radialGradient id="paint12_radial" cx="0" cy="0" r="1" gradientTransform="matrix(488.293 0 0 800.243 444 47.5)" gradientUnits="userSpaceOnUse"><stop stop-color="white"/><stop offset="1" stop-color="white" stop-opacity="0"/></radialGradient></defs></svg>