<svg xmlns="http://www.w3.org/2000/svg" fill="none" viewBox="0 0 539 88"><defs/><path fill="url(#paint0_radial)" d="M95.7445 0.419922H130.944V18.4599H126.544L110.154 85.9999H77.2645L67.2545 38.4799H66.1545L55.5945 85.9999H22.7045L5.21445 18.4599H0.814453V0.419922H41.5145V18.4599H37.3345L41.6245 46.5099H42.7245L53.1745 0.419922H84.8545L94.5345 46.5099H95.6345L99.9245 18.4599H95.7445V0.419922Z"/><path fill="url(#paint1_radial)" d="M159.294 87.5399C148.88 87.5399 140.74 84.8266 134.874 79.3999C129.007 73.8999 126.074 65.9066 126.074 55.4199C126.074 44.9333 129.007 36.9766 134.874 31.5499C140.74 26.0499 148.88 23.2999 159.294 23.2999C169.634 23.2999 177.077 26.0133 181.624 31.4399C186.244 36.7933 188.554 43.4666 188.554 51.4599V59.3799H152.914V60.0399C152.914 62.7533 153.72 64.7699 155.334 66.0899C156.947 67.3366 159.624 67.9599 163.364 67.9599C167.837 67.9599 172.09 67.6299 176.124 66.9699C180.157 66.3099 183.677 65.4666 186.684 64.4399V82.0399C184.117 83.4333 180.34 84.7166 175.354 85.8899C170.44 86.9899 165.087 87.5399 159.294 87.5399ZM165.674 47.2799V45.9599C165.674 43.4666 165.124 41.6699 164.024 40.5699C162.997 39.4699 161.42 38.9199 159.294 38.9199C157.167 38.9199 155.554 39.5066 154.454 40.6799C153.427 41.7799 152.914 43.5399 152.914 45.9599V47.2799H165.674Z"/><path fill="url(#paint2_radial)" d="M191.826 86.1099V67.9599H196.666V18.4599H191.826V0.419922H221.966V67.9599H226.806V86.1099H191.826Z"/><path fill="url(#paint3_radial)" d="M263.173 87.5399C252.686 87.5399 244.51 84.8266 238.643 79.3999C232.776 73.8999 229.843 65.9066 229.843 55.4199C229.843 44.9333 232.776 36.9766 238.643 31.5499C244.51 26.0499 252.65 23.2999 263.063 23.2999C268.123 23.2999 272.963 23.9966 277.583 25.3899C282.203 26.7833 285.796 28.3599 288.363 30.1199V51.8999H269.443V49.9199C269.443 47.4999 268.93 45.7399 267.903 44.6399C266.876 43.4666 265.263 42.8799 263.063 42.8799C258.81 42.8799 256.683 45.2266 256.683 49.9199V59.3799C256.683 65.0999 259.946 67.9599 266.473 67.9599C272.56 67.9599 279.636 67.2999 287.703 65.9799V83.2499C285.21 84.3499 281.69 85.3399 277.143 86.2199C272.67 87.0999 268.013 87.5399 263.173 87.5399Z"/><path fill="url(#paint4_radial)" d="M324.831 87.5399C314.417 87.5399 306.277 84.8266 300.411 79.3999C294.544 73.8999 291.611 65.9066 291.611 55.4199C291.611 44.9333 294.544 36.9766 300.411 31.5499C306.277 26.0499 314.417 23.2999 324.831 23.2999C335.391 23.2999 343.567 26.0866 349.361 31.6599C355.154 37.1599 358.051 45.0799 358.051 55.4199C358.051 65.9066 355.117 73.8999 349.251 79.3999C343.384 84.8266 335.244 87.5399 324.831 87.5399ZM324.831 67.9599C326.957 67.9599 328.534 67.4099 329.561 66.3099C330.661 65.1366 331.211 63.3399 331.211 60.9199V49.9199C331.211 47.4999 330.661 45.7399 329.561 44.6399C328.534 43.4666 326.957 42.8799 324.831 42.8799C322.704 42.8799 321.091 43.4666 319.991 44.6399C318.964 45.7399 318.451 47.4999 318.451 49.9199V60.9199C318.451 63.3399 318.964 65.1366 319.991 66.3099C321.091 67.4099 322.704 67.9599 324.831 67.9599Z"/><path fill="url(#paint5_radial)" d="M472.653 67.9599V85.9999H437.893V67.9599H442.513V49.9199C442.513 47.4999 441.999 45.7399 440.973 44.6399C439.946 43.4666 438.406 42.8799 436.353 42.8799C431.953 42.8799 429.753 45.2266 429.753 49.9199V67.9599H434.373V85.9999H399.833V67.9599H404.453V49.9199C404.453 47.4999 403.939 45.7399 402.913 44.6399C401.886 43.4666 400.346 42.8799 398.293 42.8799C393.893 42.8799 391.693 45.2266 391.693 49.9199V67.9599H396.313V85.9999H361.553V67.9599H366.393V42.8799H361.553V24.8399H391.693V33.4199C396.973 26.6733 403.573 23.2999 411.493 23.2999C415.966 23.2999 419.596 24.3633 422.383 26.4899C425.243 28.5433 427.259 31.4766 428.433 35.2899C431.073 31.4766 434.079 28.5433 437.453 26.4899C440.899 24.4366 444.933 23.4099 449.553 23.4099C455.639 23.4099 460.186 25.3166 463.193 29.1299C466.273 32.9433 467.813 38.1866 467.813 44.8599V67.9599H472.653Z"/><path fill="url(#paint6_radial)" d="M508.952 87.5399C498.538 87.5399 490.398 84.8266 484.532 79.3999C478.665 73.8999 475.732 65.9066 475.732 55.4199C475.732 44.9333 478.665 36.9766 484.532 31.5499C490.398 26.0499 498.538 23.2999 508.952 23.2999C519.292 23.2999 526.735 26.0133 531.282 31.4399C535.902 36.7933 538.212 43.4666 538.212 51.4599V59.3799H502.572V60.0399C502.572 62.7533 503.378 64.7699 504.992 66.0899C506.605 67.3366 509.282 67.9599 513.022 67.9599C517.495 67.9599 521.748 67.6299 525.782 66.9699C529.815 66.3099 533.335 65.4666 536.342 64.4399V82.0399C533.775 83.4333 529.998 84.7166 525.012 85.8899C520.098 86.9899 514.745 87.5399 508.952 87.5399ZM515.332 47.2799V45.9599C515.332 43.4666 514.782 41.6699 513.682 40.5699C512.655 39.4699 511.078 38.9199 508.952 38.9199C506.825 38.9199 505.212 39.5066 504.112 40.6799C503.085 41.7799 502.572 43.5399 502.572 45.9599V47.2799H515.332Z"/><defs><radialGradient id="paint0_radial" cx="0" cy="0" r="1" gradientTransform="matrix(297.485 0 0 800.243 269.5 47.5)" gradientUnits="userSpaceOnUse"><stop stop-color="white"/><stop offset="1" stop-color="white" stop-opacity="0"/></radialGradient><radialGradient id="paint1_radial" cx="0" cy="0" r="1" gradientTransform="matrix(297.485 0 0 800.243 269.5 47.5)" gradientUnits="userSpaceOnUse"><stop stop-color="white"/><stop offset="1" stop-color="white" stop-opacity="0"/></radialGradient><radialGradient id="paint2_radial" cx="0" cy="0" r="1" gradientTransform="matrix(297.485 0 0 800.243 269.5 47.5)" gradientUnits="userSpaceOnUse"><stop stop-color="white"/><stop offset="1" stop-color="white" stop-opacity="0"/></radialGradient><radialGradient id="paint3_radial" cx="0" cy="0" r="1" gradientTransform="matrix(297.485 0 0 800.243 269.5 47.5)" gradientUnits="userSpaceOnUse"><stop stop-color="white"/><stop offset="1" stop-color="white" stop-opacity="0"/></radialGradient><radialGradient id="paint4_radial" cx="0" cy="0" r="1" gradientTransform="matrix(297.485 0 0 800.243 269.5 47.5)" gradientUnits="userSpaceOnUse"><stop stop-color="white"/><stop offset="1" stop-color="white" stop-opacity="0"/></radialGradient><radialGradient id="paint5_radial" cx="0" cy="0" r="1" gradientTransform="matrix(297.485 0 0 800.243 269.5 47.5)" gradientUnits="userSpaceOnUse"><stop stop-color="white"/><stop offset="1" stop-color="white" stop-opacity="0"/></radialGradient><radialGradient id="paint6_radial" cx="0" cy="0" r="1" gradientTransform="matrix(297.485 0 0 800.243 269.5 47.5)" gradientUnits="userSpaceOnUse"><stop stop-color="white"/><stop offset="1" stop-color="white" stop-opacity="0"/></radialGradient></defs></svg>