<svg xmlns="http://www.w3.org/2000/svg" fill="none" viewBox="0 0 804 210"><defs/><path fill="url(#paint0_radial)" d="M72.55 25.54H56.04v-7.48H49.9v43.2h6.72V77H16.3V61.26h6.72v-43.2h-6.15v7.48H.36V2.31h72.2v23.23zm66.84 35.72V77h-30.33V61.26h4.03V45.5c0-2.11-.45-3.65-1.34-4.6-.9-1.03-2.24-1.54-4.04-1.54-3.84 0-5.76 2.05-5.76 6.14v15.75H106V77H75.65V61.26h4.22v-43.2h-4.22V2.3h26.3v28.8a25.3 25.3 0 017.68-6.62 20.05 20.05 0 019.6-2.21c5.32 0 9.28 1.66 11.9 5 2.7 3.32 4.04 7.9 4.04 13.72v20.26h4.22zm31.71 17.08c-9.09 0-16.19-2.36-21.31-7.1-5.12-4.8-7.68-11.78-7.68-20.93s2.56-16.1 7.68-20.83c5.12-4.8 12.22-7.2 21.31-7.2 9.03 0 15.52 2.37 19.49 7.1 4.03 4.68 6.05 10.5 6.05 17.48v6.9h-31.1v.58c0 2.37.7 4.13 2.1 5.28 1.41 1.1 3.75 1.64 7.01 1.64 3.9 0 7.62-.3 11.14-.87 3.52-.57 6.6-1.31 9.22-2.2v15.35c-2.24 1.22-5.54 2.34-9.9 3.36a64.15 64.15 0 01-14 1.44zm5.57-35.13v-1.15c0-2.18-.48-3.75-1.44-4.7-.9-.97-2.27-1.45-4.13-1.45-1.85 0-3.26.51-4.22 1.54-.9.96-1.35 2.5-1.35 4.6v1.16h11.14zm51.6 18.05h4.23v-21.9h-4.22V23.63h4.41c0-7.8 1.89-13.53 5.66-17.18 3.84-3.65 9.41-5.47 16.7-5.47 3.53 0 6.66.25 9.42.77 2.81.5 4.86 1.08 6.14 1.72v15.08c-3.4-.32-6.53-.48-9.4-.48-2.5 0-4.23.41-5.2 1.24-.95.84-1.43 2.28-1.43 4.32h7.49v15.75h-7.5v21.89h7.5V77h-33.8V61.26zm92.82 0V77h-25.35v-6.53a19.8 19.8 0 01-5.95 5.47c-2.5 1.6-5.57 2.4-9.22 2.4-4.8 0-8.57-1.28-11.32-3.84-2.75-2.56-4.13-6.17-4.13-10.84 0-12.1 10.27-18.3 30.81-18.63-.19-2.17-1.02-3.65-2.5-4.41-1.46-.84-3.96-1.25-7.48-1.25-2.88 0-5.98.32-9.31.96a51.54 51.54 0 00-9.02 2.4V25.06a100.33 100.33 0 0122.65-2.78c9.54 0 16.35 1.73 20.45 5.18 4.1 3.46 6.14 8.8 6.14 16.04v17.76h4.23zm-25.35-6.72c-2.88 0-5.12.38-6.72 1.15a3.97 3.97 0 00-2.3 3.84c0 1.09.32 1.98.96 2.69.7.64 1.66.96 2.88.96a4.3 4.3 0 003.84-2.12c.9-1.4 1.34-3.39 1.34-5.95v-.57zm51.77 23.8a71.61 71.61 0 01-23.33-3.84V60.3h15.55v.96c0 3.07 1.95 4.6 5.86 4.6 3.46 0 5.18-1.18 5.18-3.55 0-1.28-.5-2.24-1.53-2.88-.96-.64-2.7-1.18-5.19-1.63l-4.8-.86c-10.05-1.8-15.07-7.5-15.07-17.1 0-5.56 2.11-9.88 6.34-12.95 4.22-3.07 9.92-4.61 17.09-4.61 8 0 14.75 1.34 20.25 4.03v13.35h-14.6v-.96c0-1.28-.44-2.24-1.33-2.88-.84-.7-2.08-1.06-3.75-1.06-3.2 0-4.8 1.02-4.8 3.07 0 1.09.45 1.92 1.35 2.5.9.57 2.52 1.12 4.9 1.63l5.46 1.06c5.7 1.08 9.76 3.1 12.2 6.04 2.43 2.95 3.64 6.72 3.64 11.33 0 5.83-2.05 10.27-6.14 13.35-4.03 3.07-9.8 4.6-17.28 4.6zm50.16 0c-6.78 0-11.9-1.63-15.36-4.9-3.39-3.32-5.08-8.89-5.08-16.7V39.37H373V23.62c2.43 0 4.26-.6 5.47-1.82 1.22-1.28 1.83-3 1.83-5.18V12.3h20.35v11.32h12.96v15.75h-12.96V55.1c0 2.11.45 3.68 1.34 4.7.96.97 2.37 1.45 4.23 1.45 2.43 0 5.09-.3 7.97-.87v15.07c-1.8.7-4.23 1.35-7.3 1.92-3 .64-6.08.96-9.22.96zm48.21 0c-9.08 0-16.19-2.36-21.3-7.1-5.13-4.8-7.69-11.78-7.69-20.93s2.56-16.1 7.68-20.83c5.12-4.8 12.23-7.2 21.31-7.2 9.03 0 15.52 2.37 19.5 7.1 4.02 4.68 6.04 10.5 6.04 17.48v6.9h-31.1v.58c0 2.37.7 4.13 2.1 5.28 1.41 1.1 3.75 1.64 7.01 1.64 3.9 0 7.62-.3 11.14-.87 3.52-.57 6.6-1.31 9.22-2.2v15.35c-2.24 1.22-5.54 2.34-9.9 3.36a64.15 64.15 0 01-14 1.44zm5.57-35.13v-1.15c0-2.18-.48-3.75-1.44-4.7-.9-.97-2.27-1.45-4.13-1.45-1.85 0-3.26.51-4.22 1.54-.9.96-1.35 2.5-1.35 4.6v1.16h11.14zm46.15 35.13a71.61 71.61 0 01-23.33-3.84V60.3h15.56v.96c0 3.07 1.95 4.6 5.85 4.6 3.46 0 5.19-1.18 5.19-3.55 0-1.28-.51-2.24-1.54-2.88-.96-.64-2.69-1.18-5.18-1.63l-4.8-.86c-10.05-1.8-15.08-7.5-15.08-17.1 0-5.56 2.12-9.88 6.34-12.95 4.22-3.07 9.92-4.61 17.09-4.61 8 0 14.75 1.34 20.26 4.03v13.35h-14.6v-.96c0-1.28-.44-2.24-1.34-2.88-.83-.7-2.08-1.06-3.75-1.06-3.2 0-4.8 1.02-4.8 3.07 0 1.09.45 1.92 1.35 2.5.9.57 2.53 1.12 4.9 1.63l5.47 1.06c5.7 1.08 9.76 3.1 12.19 6.04 2.43 2.95 3.65 6.72 3.65 11.33 0 5.83-2.05 10.27-6.15 13.35-4.03 3.07-9.79 4.6-17.28 4.6zm50.17 0c-6.79 0-11.9-1.63-15.36-4.9-3.4-3.32-5.09-8.89-5.09-16.7V39.37h-4.22V23.62c2.43 0 4.25-.6 5.47-1.82 1.21-1.28 1.82-3 1.82-5.18V12.3h20.35v11.32h12.96v15.75h-12.96V55.1c0 2.11.45 3.68 1.35 4.7.96.97 2.37 1.45 4.22 1.45 2.43 0 5.09-.3 7.97-.87v15.07c-1.8.7-4.22 1.35-7.3 1.92-3 .64-6.08.96-9.21.96zM612.09 77L599.4 39.37h-4.03V23.62h29.67v15.75H621l3.46 14.97h.96l7-30.72h17.67l7.01 30.72h.96l3.36-14.97h-4.03V23.62h27.84v15.75h-4.03L669 77H645.7l-5.28-26.69h-.96L634.17 77h-22.08zm130.87-15.74V77h-25.34v-6.53a19.8 19.8 0 01-5.95 5.47c-2.5 1.6-5.57 2.4-9.22 2.4-4.8 0-8.58-1.28-11.33-3.84-2.75-2.56-4.13-6.17-4.13-10.84 0-12.1 10.28-18.3 30.82-18.63-.2-2.17-1.02-3.65-2.5-4.41-1.47-.84-3.96-1.25-7.48-1.25-2.88 0-5.99.32-9.32.96a51.54 51.54 0 00-9.02 2.4V25.06a100.33 100.33 0 0122.66-2.78c9.53 0 16.35 1.73 20.44 5.18 4.1 3.46 6.15 8.8 6.15 16.04v17.76h4.22zm-25.34-6.72c-2.88 0-5.12.38-6.72 1.15a3.97 3.97 0 00-2.3 3.84c0 1.09.31 1.98.95 2.69.7.64 1.67.96 2.88.96a4.3 4.3 0 003.84-2.12c.9-1.4 1.35-3.39 1.35-5.95v-.57zm86.23-30.92v15.75h-3.65l-12.58 33.31c-3.13 8.38-6.72 14.66-10.75 18.82-4.03 4.22-9.34 6.33-15.93 6.33-2.7 0-5.41-.29-8.16-.86a35.42 35.42 0 01-7.5-2.21V77.38h13.26v.96c0 1.6.83 2.4 2.5 2.4 1.46 0 2.58-.7 3.35-2.1l-15.17-39.27h-3.64V23.62h28.5v15.75h-3.26l5 14.97 4.6-14.97h-3.26V23.62h26.69zM248.89 209.34c-6.78 0-11.9-1.63-15.36-4.9-3.39-3.32-5.09-8.89-5.09-16.7v-17.37h-4.22v-15.75c2.43 0 4.26-.6 5.47-1.82 1.22-1.28 1.83-3 1.83-5.18v-4.32h20.35v11.32h12.96v15.75h-12.96v15.74c0 2.11.45 3.68 1.34 4.7.96.97 2.37 1.45 4.23 1.45 2.43 0 5.08-.3 7.96-.87v15.07c-1.79.7-4.22 1.35-7.3 1.92-3 .64-6.07.96-9.2.96zm48.21 0c-9.09 0-16.19-2.36-21.31-7.1-5.12-4.8-7.68-11.78-7.68-20.93s2.56-16.1 7.68-20.83c5.12-4.8 12.22-7.2 21.31-7.2 9.22 0 16.35 2.43 21.41 7.3 5.06 4.8 7.58 11.7 7.58 20.73 0 9.15-2.56 16.13-7.68 20.93-5.12 4.74-12.22 7.1-21.3 7.1zm0-17.08c1.86 0 3.23-.48 4.13-1.44.96-1.03 1.44-2.6 1.44-4.7v-9.6c0-2.12-.48-3.66-1.44-4.62-.9-1.02-2.27-1.53-4.13-1.53-1.85 0-3.26.51-4.22 1.53-.9.96-1.35 2.5-1.35 4.61v9.6c0 2.11.45 3.68 1.35 4.7.96.97 2.37 1.45 4.22 1.45zM373.87 208l-12.68-37.63h-4.03v-15.75h29.67v15.75h-4.03l3.45 14.97h.96l7-30.72h17.67l7.01 30.72h.96l3.36-14.97h-4.03v-15.75h27.84v15.75h-4.03L430.79 208h-23.32l-5.28-26.69h-.96L395.95 208h-22.08zm80.45-58.66v-16.03h19.58v16.03h-19.58zm-4.6 58.66v-15.74h4.22v-21.9h-4.23v-15.74h26.3v37.64h4.23V208h-30.53zm96.92-15.74V208h-30.33v-15.74h4.03V176.5c0-2.11-.45-3.65-1.34-4.6-.9-1.03-2.24-1.54-4.04-1.54-3.84 0-5.76 2.05-5.76 6.14v15.75h4.04V208H482.9v-15.74h4.22v-21.9h-4.22v-15.74h26.3v7.5c4.61-5.9 10.37-8.84 17.28-8.84 5.32 0 9.28 1.66 11.9 5 2.7 3.32 4.04 7.9 4.04 13.72v20.26h4.22zm7.71-5.28l-4.41-48.87v-4.8h28.7v4.8l-4.51 48.87h-19.78zM553.4 208v-15.74h21.7V208h-21.7z"/><defs><radialGradient id="paint0_radial" cx="0" cy="0" r="1" gradientTransform="matrix(505.638 0 0 2830 402 109)" gradientUnits="userSpaceOnUse"><stop stop-color="#fff"/><stop offset="1" stop-color="#fff" stop-opacity="0"/></radialGradient></defs></svg>